<svg version="1.1" id="Layer_1" xmlns="http://www.w3.org/2000/svg" xmlns:xlink="http://www.w3.org/1999/xlink" x="0px" y="0px"
	 width="100%" viewBox="0 0 1024 1024" enable-background="new 0 0 1024 1024" xml:space="preserve">
<path fill="#000000" opacity="1.000000" stroke="none" 
	d="
M254.213165,532.014648 
	C274.768890,522.153564 293.770081,526.546143 312.061798,537.137573 
	C329.467499,547.216003 341.368866,562.535706 351.350616,579.552612 
	C354.354492,584.673706 357.215363,589.878662 360.631348,595.909607 
	C360.631348,591.582275 360.641510,588.157349 360.629852,584.732544 
	C360.337402,498.750397 359.990936,412.768402 359.795868,326.786011 
	C359.760620,311.250824 362.584808,296.304718 371.660736,283.190094 
	C381.457855,269.033417 394.948486,260.002014 411.940338,258.054352 
	C426.075836,256.434082 438.881897,261.861572 449.702240,270.960236 
	C464.560181,283.454071 472.074219,299.888092 474.451080,319.000916 
	C475.362122,326.326904 475.247223,333.623474 475.255432,340.940216 
	C475.292267,373.768799 475.262207,406.597443 475.256378,439.426086 
	C475.256012,441.399658 475.256317,443.373230 475.256317,446.147827 
	C490.239410,439.298950 505.022369,438.890686 519.966919,443.658569 
	C534.840454,448.403839 546.449219,457.333313 554.479675,471.570160 
	C569.724670,463.163574 585.596619,459.824982 602.509949,465.147888 
	C618.756958,470.261108 633.886169,476.861115 640.731262,494.513733 
	C649.321167,490.213348 657.582031,487.003510 666.743896,486.441010 
	C695.930725,484.649109 724.905151,501.309235 731.342957,535.125061 
	C732.839294,542.985046 733.360535,550.923889 733.345337,558.937500 
	C733.267822,599.764893 732.722107,640.603027 733.461853,681.417114 
	C734.301880,727.765320 725.359070,771.630188 703.876648,812.821472 
	C694.143372,831.484497 689.500183,851.261047 690.215271,872.404541 
	C690.682495,886.219666 690.314575,900.064270 690.257690,913.895447 
	C690.178589,933.105896 678.329651,945.263550 659.049744,945.287231 
	C577.394897,945.387512 495.739746,945.391785 414.084900,945.275940 
	C394.039429,945.247498 381.807831,932.570984 381.699341,912.617798 
	C381.629761,899.826050 382.445709,886.976929 379.328125,874.361694 
	C375.396393,858.452026 365.939484,845.838013 355.111237,834.145203 
	C337.223999,814.829956 318.780365,795.987610 305.607330,772.876221 
	C292.870850,750.530640 282.902679,726.907166 274.119446,702.812561 
	C261.408722,667.943970 248.578827,633.164001 233.048706,599.394348 
	C224.747910,581.344604 225.385986,563.185120 237.304138,546.324402 
	C241.639542,540.191040 247.345749,535.719482 254.213165,532.014648 
M424.600037,293.788940 
	C421.035034,293.089081 417.587433,291.977509 413.794769,292.615112 
	C402.708435,294.478760 397.549683,302.118256 394.497559,311.901672 
	C391.257629,322.287140 392.156281,333.036438 392.152649,343.637115 
	C392.118927,441.793671 392.263611,539.950317 392.320282,638.106934 
	C392.326050,648.093628 392.588013,658.079773 391.421936,668.054749 
	C390.605804,675.036011 385.192871,680.741882 378.123962,681.333069 
	C370.607910,681.961609 366.438446,677.704468 363.481201,671.542053 
	C350.564209,644.624939 336.296875,618.468872 319.335876,593.854797 
	C313.100311,584.805725 306.990204,575.635498 298.948151,567.999084 
	C291.946564,561.350586 283.971588,557.722290 274.025146,559.298462 
	C263.153015,561.021240 257.589813,569.155518 260.018311,579.814453 
	C262.127472,589.071777 267.519135,596.832703 271.294342,605.322998 
	C285.096863,636.364624 296.904297,668.203308 309.394379,699.768372 
	C320.577545,728.030701 333.071838,755.569031 351.636566,779.941528 
	C361.050262,792.300232 372.313751,803.011780 382.345581,814.819580 
	C394.777283,829.452026 404.972046,845.287720 409.752777,864.147583 
	C413.135529,877.492371 413.468842,891.107483 413.372559,904.769348 
	C413.328522,911.023071 414.898651,912.633057 420.862518,912.634460 
	C497.521698,912.653076 574.180847,912.656616 650.840027,912.640137 
	C656.809265,912.638855 658.611511,910.844543 658.633179,904.902710 
	C658.686707,890.237671 658.535522,875.570557 658.737854,860.908081 
	C658.808594,855.782349 659.468872,850.637878 660.211426,845.553223 
	C662.913391,827.052002 670.175171,809.997131 677.969604,793.280090 
	C694.170776,758.532776 701.059143,722.058960 700.730835,683.883789 
	C700.393982,644.723816 700.627625,605.558655 700.676086,566.395874 
	C700.685303,558.895752 700.454956,551.430115 699.663757,543.962402 
	C698.245850,530.579163 686.496765,518.885376 673.703735,518.376160 
	C660.706177,517.858887 649.757935,526.929382 647.247742,540.786865 
	C645.155396,552.337036 646.654419,564.049438 646.386719,575.685425 
	C646.149475,585.994934 640.350281,592.439880 630.767273,592.534424 
	C621.193420,592.628845 614.588501,585.714417 614.623474,575.523987 
	C614.669739,562.025635 614.773193,548.527466 614.874390,535.029419 
	C614.933289,527.176941 614.516052,519.409912 611.630432,511.961456 
	C606.829834,499.570343 595.722595,492.666595 583.406677,494.503845 
	C570.913696,496.367554 562.073914,507.027557 561.162781,520.293945 
	C560.190918,534.445312 560.468994,548.595154 560.284790,562.747559 
	C560.231934,566.805115 559.662354,570.712280 556.970093,574.000427 
	C552.384583,579.600891 545.733826,581.520935 539.029846,579.162354 
	C533.041321,577.055481 528.716309,570.946106 528.693542,564.048828 
	C528.622681,542.551147 528.801758,521.051941 528.616394,499.555634 
	C528.482849,484.067017 516.211548,472.099426 501.231232,472.377014 
	C485.818878,472.662628 472.970886,485.576233 473.709442,500.813263 
	C474.662384,520.473206 473.737335,540.144470 474.493011,559.780823 
	C474.931549,571.175537 467.148376,577.489929 456.644104,576.486389 
	C447.917145,575.652771 441.777466,569.154419 441.835999,559.529297 
	C441.924133,545.041565 442.595276,530.556274 442.619446,516.069336 
	C442.711243,461.075073 442.684540,406.080536 442.598816,351.086243 
	C442.581451,339.943207 443.115631,328.795105 441.732086,317.655151 
	C440.380920,306.775452 436.147675,298.222626 424.600037,293.788940 
z"/>
<path fill="#000000" opacity="1.000000" stroke="none" 
	d="
M267.667847,361.256927 
	C251.659851,337.650940 241.774780,311.906799 238.919693,284.035980 
	C232.350342,219.907089 252.110809,165.451202 301.640076,123.169762 
	C325.951141,102.416267 354.459808,89.754005 386.034149,84.700485 
	C454.028961,73.817810 510.399872,95.646248 555.259094,147.078339 
	C577.508057,172.587234 590.870056,202.720459 595.401794,236.460739 
	C604.068237,300.983917 581.949585,354.052856 534.987976,397.740082 
	C529.866455,402.504486 524.173950,406.631989 517.974792,409.962036 
	C508.382843,415.114624 499.452728,413.290649 494.350281,405.193542 
	C488.392303,395.738892 490.164886,386.342499 499.352448,379.907379 
	C516.509583,367.890259 530.868591,353.262421 541.465637,335.113586 
	C552.627075,315.998169 558.721497,295.380829 560.813110,273.305695 
	C567.326660,204.560577 513.648560,134.632416 443.572052,121.583252 
	C367.713440,107.457359 294.730804,156.172058 277.782837,229.426453 
	C265.926483,280.673309 278.831268,325.528046 315.105774,363.595703 
	C320.981354,369.761688 327.953461,374.682831 334.744965,379.799316 
	C345.939362,388.232880 346.407349,399.456177 336.137207,408.926544 
	C330.995270,413.668060 324.009491,413.992706 316.751495,409.682373 
	C311.003815,406.269012 305.624664,402.280792 300.814423,397.669495 
	C289.031342,386.373718 277.072998,375.211700 267.667847,361.256927 
z"/>
<path fill="#000000" opacity="1.000000" stroke="none" 
	d="
M479.444916,313.162781 
	C476.974976,307.484070 477.239655,302.169586 478.971619,296.731354 
	C485.630493,275.823090 486.243347,255.080734 475.500732,235.290298 
	C462.711823,211.730194 443.334442,198.511826 415.725891,199.241089 
	C388.519470,199.959717 370.136902,214.111160 358.444031,237.680206 
	C348.562958,257.597168 349.646942,278.220703 356.194489,298.880951 
	C358.415314,305.888611 357.690155,312.326782 353.005463,318.158478 
	C347.646698,324.829346 339.490326,325.223480 333.444641,319.122650 
	C331.528290,317.188843 330.154602,314.888458 329.160522,312.423523 
	C323.355591,298.029541 318.953674,283.416901 318.423004,267.612305 
	C317.870178,251.148804 319.865601,235.309875 327.234955,220.616684 
	C343.556396,188.074585 369.443085,168.987045 406.144867,164.492630 
	C460.175690,157.876160 504.995972,193.705231 514.816345,243.583252 
	C519.813904,268.965851 514.540405,293.194672 502.728699,316.027161 
	C500.477875,320.378174 497.041260,323.567047 491.698029,323.315430 
	C485.363495,323.017151 482.018005,318.794495 479.444916,313.162781 
z"/>
</svg>