<svg version="1.1" id="Layer_1" xmlns="http://www.w3.org/2000/svg" xmlns:xlink="http://www.w3.org/1999/xlink" x="0px" y="0px"
	 width="100%" viewBox="0 0 1080 1080" enable-background="new 0 0 1080 1080" xml:space="preserve">
<path fill="none" opacity="1.000000" stroke="none"
	d="
M567.000000,1081.000000 
	C378.021759,1081.000000 189.543503,1081.000000 1.032628,1081.000000 
	C1.032628,721.063293 1.032628,361.126587 1.032628,1.094941 
	C360.895172,1.094941 720.790344,1.094941 1080.842773,1.094941 
	C1080.842773,360.999939 1080.842773,720.999939 1080.842773,1081.000000 
	C909.792786,1081.000000 738.646423,1081.000000 567.000000,1081.000000 
M380.352661,50.139706 
	C372.091949,41.980011 362.167419,37.541203 350.611603,36.380905 
	C321.682159,33.476131 295.715454,60.397453 299.527985,89.213242 
	C301.130371,101.324249 306.720367,110.899208 315.301697,119.474335 
	C496.854645,300.895538 678.298767,482.425690 859.805908,663.892761 
	C861.161438,665.248108 863.090942,666.029419 864.752502,667.078674 
	C864.324036,667.662781 863.895569,668.246826 863.467102,668.830872 
	C861.866211,668.830872 860.265320,668.830444 858.664429,668.830933 
	C817.998657,668.843933 777.331604,668.662292 736.667542,668.934753 
	C706.753662,669.135132 683.967163,698.012207 689.482727,727.408386 
	C693.862976,750.753601 715.379944,768.461853 739.056335,768.328979 
	C816.052429,767.896667 893.052429,768.166992 970.050964,768.172363 
	C974.882202,768.172668 979.713623,768.256714 984.544739,768.239014 
	C1005.136780,768.163818 1025.277710,751.757996 1029.772949,731.272766 
	C1031.419800,723.768066 1031.121582,715.761963 1031.130493,707.984009 
	C1031.218262,631.485596 1031.195190,554.987000 1031.153198,478.488464 
	C1031.150879,474.173187 1031.175659,469.771240 1030.392334,465.557556 
	C1026.212646,443.072327 1004.876160,424.663818 979.577881,425.714539 
	C953.859009,426.782684 932.092102,447.675079 931.958435,473.365967 
	C931.746826,514.030640 931.873962,554.697083 931.857849,595.362793 
	C931.857178,597.081604 931.857788,598.800415 931.857788,600.912903 
	C930.897705,600.311157 930.576660,600.183289 930.352234,599.958862 
	C747.183594,416.853882 564.021484,233.742416 380.352661,50.139706 
M354.907257,222.349503 
	C350.288361,221.899704 345.669891,221.062286 341.050537,221.057709 
	C260.556702,220.978043 180.062759,220.992554 99.568848,221.006317 
	C79.518745,221.009750 61.106903,234.050751 53.755699,252.777710 
	C50.089622,262.116974 50.796341,271.672455 50.799946,281.282227 
	C50.829014,358.776337 51.120499,436.272308 50.649948,513.763550 
	C50.498344,538.729797 71.391731,562.912048 98.911118,563.624756 
	C126.408897,564.336914 149.906754,542.802795 150.045303,515.386108 
	C150.249939,474.890259 150.123062,434.392792 150.137268,393.895996 
	C150.137863,392.194366 150.137344,390.492737 150.137344,388.791077 
	C150.588013,388.604919 151.038696,388.418732 151.489365,388.232544 
	C152.510834,389.547333 153.403900,390.990479 154.571930,392.158722 
	C335.438843,573.067322 516.325378,753.956360 697.213684,934.843567 
	C699.334595,936.964478 701.427002,939.119629 703.638184,941.143433 
	C711.539490,948.375305 720.920044,952.346680 731.554871,952.992371 
	C752.079590,954.238403 770.260498,943.264221 778.616760,924.865540 
	C786.750732,906.956116 782.494751,885.936157 767.745789,871.186401 
	C585.683899,689.115906 403.622589,507.044891 221.541687,324.993408 
	C220.439362,323.891235 219.062744,323.063354 217.814209,322.107391 
	C218.099274,321.738251 218.384338,321.369080 218.669403,320.999939 
	C220.290558,320.999939 221.911697,320.999939 223.532852,320.999939 
	C262.863220,320.999939 302.194366,321.122406 341.523102,320.870575 
	C347.563293,320.831879 353.812775,319.776123 359.587494,317.977417 
	C381.175415,311.253204 394.095886,290.971161 392.998199,266.442505 
	C392.113190,246.667282 375.661133,227.365433 354.907257,222.349503 
z"/>
<path fill="#010101" opacity="1.000000" stroke="none" 
	d="
M380.605957,50.385361 
	C564.021484,233.742416 747.183594,416.853882 930.352234,599.958862 
	C930.576660,600.183289 930.897705,600.311157 931.857788,600.912903 
	C931.857788,598.800415 931.857178,597.081604 931.857849,595.362793 
	C931.873962,554.697083 931.746826,514.030640 931.958435,473.365967 
	C932.092102,447.675079 953.859009,426.782684 979.577881,425.714539 
	C1004.876160,424.663818 1026.212646,443.072327 1030.392334,465.557556 
	C1031.175659,469.771240 1031.150879,474.173187 1031.153198,478.488464 
	C1031.195190,554.987000 1031.218262,631.485596 1031.130493,707.984009 
	C1031.121582,715.761963 1031.419800,723.768066 1029.772949,731.272766 
	C1025.277710,751.757996 1005.136780,768.163818 984.544739,768.239014 
	C979.713623,768.256714 974.882202,768.172668 970.050964,768.172363 
	C893.052429,768.166992 816.052429,767.896667 739.056335,768.328979 
	C715.379944,768.461853 693.862976,750.753601 689.482727,727.408386 
	C683.967163,698.012207 706.753662,669.135132 736.667542,668.934753 
	C777.331604,668.662292 817.998657,668.843933 858.664429,668.830933 
	C860.265320,668.830444 861.866211,668.830872 863.467102,668.830872 
	C863.895569,668.246826 864.324036,667.662781 864.752502,667.078674 
	C863.090942,666.029419 861.161438,665.248108 859.805908,663.892761 
	C678.298767,482.425690 496.854645,300.895538 315.301697,119.474335 
	C306.720367,110.899208 301.130371,101.324249 299.527985,89.213242 
	C295.715454,60.397453 321.682159,33.476131 350.611603,36.380905 
	C362.167419,37.541203 372.091949,41.980011 380.605957,50.385361 
z"/>
<path fill="#000000" opacity="1.000000" stroke="none" 
	d="
M355.293396,222.504547 
	C375.661133,227.365433 392.113190,246.667282 392.998199,266.442505 
	C394.095886,290.971161 381.175415,311.253204 359.587494,317.977417 
	C353.812775,319.776123 347.563293,320.831879 341.523102,320.870575 
	C302.194366,321.122406 262.863220,320.999939 223.532852,320.999939 
	C221.911697,320.999939 220.290558,320.999939 218.669403,320.999939 
	C218.384338,321.369080 218.099274,321.738251 217.814209,322.107391 
	C219.062744,323.063354 220.439362,323.891235 221.541687,324.993408 
	C403.622589,507.044891 585.683899,689.115906 767.745789,871.186401 
	C782.494751,885.936157 786.750732,906.956116 778.616760,924.865540 
	C770.260498,943.264221 752.079590,954.238403 731.554871,952.992371 
	C720.920044,952.346680 711.539490,948.375305 703.638184,941.143433 
	C701.427002,939.119629 699.334595,936.964478 697.213684,934.843567 
	C516.325378,753.956360 335.438843,573.067322 154.571930,392.158722 
	C153.403900,390.990479 152.510834,389.547333 151.489365,388.232544 
	C151.038696,388.418732 150.588013,388.604919 150.137344,388.791077 
	C150.137344,390.492737 150.137863,392.194366 150.137268,393.895996 
	C150.123062,434.392792 150.249939,474.890259 150.045303,515.386108 
	C149.906754,542.802795 126.408897,564.336914 98.911118,563.624756 
	C71.391731,562.912048 50.498344,538.729797 50.649948,513.763550 
	C51.120499,436.272308 50.829014,358.776337 50.799946,281.282227 
	C50.796341,271.672455 50.089622,262.116974 53.755699,252.777710 
	C61.106903,234.050751 79.518745,221.009750 99.568848,221.006317 
	C180.062759,220.992554 260.556702,220.978043 341.050537,221.057709 
	C345.669891,221.062286 350.288361,221.899704 355.293396,222.504547 
z"/>
</svg>