<svg version="1.1" id="Layer_1" xmlns="http://www.w3.org/2000/svg" xmlns:xlink="http://www.w3.org/1999/xlink" x="0px" y="0px"
	 width="100%" viewBox="0 0 1080 1080" enable-background="new 0 0 1080 1080" xml:space="preserve">
<path fill="none" opacity="1.000000" stroke="none"
	d="
M569.000000,1081.000000 
	C379.355164,1081.000000 190.210327,1081.000000 1.032743,1081.000000 
	C1.032743,721.063354 1.032743,361.126740 1.032743,1.095056 
	C360.895081,1.095056 720.790161,1.095056 1080.842651,1.095056 
	C1080.842651,360.999939 1080.842651,720.999939 1080.842651,1081.000000 
	C910.459656,1081.000000 739.979797,1081.000000 569.000000,1081.000000 
M143.991150,858.491394 
	C140.910736,861.590210 137.792526,864.652527 134.755722,867.793518 
	C106.945000,896.559021 118.674110,946.140320 156.616348,959.024109 
	C179.785431,966.891418 200.072876,961.498840 217.409103,944.149658 
	C323.785950,837.693054 430.229095,731.302673 536.614990,624.855042 
	C537.995544,623.473694 538.917053,621.633484 539.566528,620.703613 
	C618.332153,699.432556 696.147644,777.211670 773.938721,854.966431 
	C772.704956,854.966431 771.090088,854.966309 769.475220,854.966431 
	C721.309814,854.968933 673.143250,854.773987 624.979309,855.041382 
	C591.104553,855.229431 560.866699,885.956482 568.758972,925.783813 
	C574.494141,954.725647 598.545349,972.981873 629.083008,972.990417 
	C722.580627,973.016663 816.078247,973.014404 909.575867,972.958557 
	C914.379578,972.955688 919.211731,972.582092 923.981750,971.988403 
	C949.851074,968.768738 972.894043,943.217468 972.929382,917.119568 
	C973.060547,820.288940 973.098267,723.457825 972.926697,626.627319 
	C972.868652,593.857727 948.240784,568.818176 915.595947,567.477966 
	C882.887817,566.135132 855.076660,592.434998 854.987976,625.111084 
	C854.857300,673.276184 854.947266,721.441895 854.943237,769.607300 
	C854.943115,771.198914 854.943237,772.790527 854.943237,774.227905 
	C776.965820,696.285706 699.139526,618.494568 622.139893,541.529663 
	C704.019104,459.641174 786.142456,377.508545 867.909729,295.731995 
	C867.909729,296.676208 867.909607,298.489868 867.909790,300.303528 
	C867.914429,348.135620 867.767639,395.968323 867.972534,443.799561 
	C868.132202,481.078522 903.583008,508.659454 939.920044,500.123749 
	C967.454590,493.655792 985.861816,470.283081 985.889282,441.269745 
	C985.979919,345.605713 986.015442,249.941528 985.949463,154.277481 
	C985.927429,122.293175 959.392334,96.009132 927.467346,96.004845 
	C832.303101,95.992065 737.138855,95.987152 641.974609,96.041817 
	C637.668274,96.044289 633.310242,96.341217 629.064514,97.038414 
	C596.247742,102.427307 574.321899,135.663666 581.636414,167.965271 
	C587.795410,195.163681 612.666626,214.641632 640.688782,214.316574 
	C687.847839,213.769562 735.017944,214.167297 782.183411,214.167633 
	C783.881165,214.167648 785.578918,214.167633 786.729309,214.167633 
	C704.542419,296.389435 622.475708,378.491089 539.940491,461.061371 
	C539.083801,460.030212 538.020874,458.521698 536.735229,457.235748 
	C430.686066,351.158478 324.620148,245.097977 218.549683,139.042023 
	C216.664810,137.157410 214.775757,135.268143 212.777740,133.506897 
	C185.869049,109.787086 143.176620,117.410332 126.297188,148.930038 
	C114.204033,171.512131 118.080193,197.574036 136.416321,215.916550 
	C243.403748,322.941254 350.413940,429.943237 457.449066,536.920227 
	C458.716827,538.187317 460.416687,539.022034 462.242859,540.285522 
	C355.638855,646.874084 250.064987,752.432678 143.991150,858.491394 
z"/>
<path fill="#000000" opacity="1.000000" stroke="none" 
	d="
M144.241119,858.241333 
	C250.064987,752.432678 355.638855,646.874084 462.242859,540.285522 
	C460.416687,539.022034 458.716827,538.187317 457.449066,536.920227 
	C350.413940,429.943237 243.403748,322.941254 136.416321,215.916550 
	C118.080193,197.574036 114.204033,171.512131 126.297188,148.930038 
	C143.176620,117.410332 185.869049,109.787086 212.777740,133.506897 
	C214.775757,135.268143 216.664810,137.157410 218.549683,139.042023 
	C324.620148,245.097977 430.686066,351.158478 536.735229,457.235748 
	C538.020874,458.521698 539.083801,460.030212 539.940491,461.061371 
	C622.475708,378.491089 704.542419,296.389435 786.729309,214.167633 
	C785.578918,214.167633 783.881165,214.167648 782.183411,214.167633 
	C735.017944,214.167297 687.847839,213.769562 640.688782,214.316574 
	C612.666626,214.641632 587.795410,195.163681 581.636414,167.965271 
	C574.321899,135.663666 596.247742,102.427307 629.064514,97.038414 
	C633.310242,96.341217 637.668274,96.044289 641.974609,96.041817 
	C737.138855,95.987152 832.303101,95.992065 927.467346,96.004845 
	C959.392334,96.009132 985.927429,122.293175 985.949463,154.277481 
	C986.015442,249.941528 985.979919,345.605713 985.889282,441.269745 
	C985.861816,470.283081 967.454590,493.655792 939.920044,500.123749 
	C903.583008,508.659454 868.132202,481.078522 867.972534,443.799561 
	C867.767639,395.968323 867.914429,348.135620 867.909790,300.303528 
	C867.909607,298.489868 867.909729,296.676208 867.909729,295.731995 
	C786.142456,377.508545 704.019104,459.641174 622.139893,541.529663 
	C699.139526,618.494568 776.965820,696.285706 854.943237,774.227905 
	C854.943237,772.790527 854.943115,771.198914 854.943237,769.607300 
	C854.947266,721.441895 854.857300,673.276184 854.987976,625.111084 
	C855.076660,592.434998 882.887817,566.135132 915.595947,567.477966 
	C948.240784,568.818176 972.868652,593.857727 972.926697,626.627319 
	C973.098267,723.457825 973.060547,820.288940 972.929382,917.119568 
	C972.894043,943.217468 949.851074,968.768738 923.981750,971.988403 
	C919.211731,972.582092 914.379578,972.955688 909.575867,972.958557 
	C816.078247,973.014404 722.580627,973.016663 629.083008,972.990417 
	C598.545349,972.981873 574.494141,954.725647 568.758972,925.783813 
	C560.866699,885.956482 591.104553,855.229431 624.979309,855.041382 
	C673.143250,854.773987 721.309814,854.968933 769.475220,854.966431 
	C771.090088,854.966309 772.704956,854.966431 773.938721,854.966431 
	C696.147644,777.211670 618.332153,699.432556 539.566528,620.703613 
	C538.917053,621.633484 537.995544,623.473694 536.614990,624.855042 
	C430.229095,731.302673 323.785950,837.693054 217.409103,944.149658 
	C200.072876,961.498840 179.785431,966.891418 156.616348,959.024109 
	C118.674110,946.140320 106.945000,896.559021 134.755722,867.793518 
	C137.792526,864.652527 140.910736,861.590210 144.241119,858.241333 
z"/>
</svg>