<svg version="1.1" id="Layer_1" xmlns="http://www.w3.org/2000/svg" xmlns:xlink="http://www.w3.org/1999/xlink" x="0px" y="0px"
	 width="100%" viewBox="0 0 1080 1080" enable-background="new 0 0 1080 1080" xml:space="preserve">
<path fill="#FFFFFF" opacity="1.000000" stroke="none" 
	d="
M628.000000,1081.000000 
	C418.690765,1081.000000 209.881531,1081.000000 1.036147,1081.000000 
	C1.036147,721.065674 1.036147,361.131287 1.036147,1.098460 
	C360.892792,1.098460 720.785645,1.098460 1080.839233,1.098460 
	C1080.839233,360.999939 1080.839233,720.999939 1080.839233,1081.000000 
	C930.130859,1081.000000 779.315430,1081.000000 628.000000,1081.000000 
M1026.234009,19.800108 
	C1022.792419,20.662712 1019.333801,21.462946 1015.911743,22.396994 
	C918.657593,48.942528 821.405396,75.494987 724.157410,102.063026 
	C700.637573,108.488625 677.133789,114.972878 653.002075,121.600578 
	C684.423218,153.199478 715.437134,184.388855 745.865601,214.989487 
	C670.242798,290.612152 594.881104,365.973602 518.717834,442.136749 
	C398.162781,321.178009 277.263672,199.873978 156.637161,78.843483 
	C130.536179,104.922874 104.891586,130.546249 79.511406,155.905426 
	C200.237534,276.999542 321.160431,398.291016 442.507324,520.007751 
	C335.652679,626.862122 228.724762,733.789734 122.106056,840.408142 
	C148.041534,866.258606 173.720520,891.853455 200.081589,918.128113 
	C306.672333,811.536255 413.609741,704.597717 520.825317,597.380981 
	C595.656799,672.545593 670.524170,747.746277 745.624084,823.180481 
	C715.052063,854.091980 684.173035,885.313843 652.721558,917.114563 
	C778.253845,950.589172 903.001221,983.854553 1028.462524,1017.310242 
	C995.004089,890.737366 961.777832,765.042908 928.334106,638.525757 
	C893.014709,674.204285 858.179443,709.393738 823.399170,744.527710 
	C748.231140,669.068909 673.403564,593.951904 599.160706,519.421875 
	C674.122314,444.459076 749.503662,369.076416 825.681152,292.897644 
	C860.233276,327.537292 895.114502,362.506866 930.008606,397.489380 
	C930.263184,396.738800 930.644104,395.815063 930.891663,394.856873 
	C961.158386,277.732239 991.429932,160.608902 1021.639404,43.469540 
	C1023.649109,35.676590 1025.183838,27.761122 1027.327759,20.185862 
	C1027.368408,19.919119 1027.408936,19.652378 1027.449463,19.385618 
	C1027.310181,19.599909 1027.170898,19.814199 1026.234009,19.800108 
z"/>
<path fill="#000000" opacity="1.000000" stroke="none" 
	d="
M1026.939453,19.902641 
	C1025.183838,27.761122 1023.649109,35.676590 1021.639404,43.469540 
	C991.429932,160.608902 961.158386,277.732239 930.891663,394.856873 
	C930.644104,395.815063 930.263184,396.738800 930.008606,397.489380 
	C895.114502,362.506866 860.233276,327.537292 825.681152,292.897644 
	C749.503662,369.076416 674.122314,444.459076 599.160706,519.421875 
	C673.403564,593.951904 748.231140,669.068909 823.399170,744.527710 
	C858.179443,709.393738 893.014709,674.204285 928.334106,638.525757 
	C961.777832,765.042908 995.004089,890.737366 1028.462524,1017.310242 
	C903.001221,983.854553 778.253845,950.589172 652.721558,917.114563 
	C684.173035,885.313843 715.052063,854.091980 745.624084,823.180481 
	C670.524170,747.746277 595.656799,672.545593 520.825317,597.380981 
	C413.609741,704.597717 306.672333,811.536255 200.081589,918.128113 
	C173.720520,891.853455 148.041534,866.258606 122.106056,840.408142 
	C228.724762,733.789734 335.652679,626.862122 442.507324,520.007751 
	C321.160431,398.291016 200.237534,276.999542 79.511406,155.905426 
	C104.891586,130.546249 130.536179,104.922874 156.637161,78.843483 
	C277.263672,199.873978 398.162781,321.178009 518.717834,442.136749 
	C594.881104,365.973602 670.242798,290.612152 745.865601,214.989487 
	C715.437134,184.388855 684.423218,153.199478 653.002075,121.600578 
	C677.133789,114.972878 700.637573,108.488625 724.157410,102.063026 
	C821.405396,75.494987 918.657593,48.942528 1015.911743,22.396994 
	C1019.333801,21.462946 1022.792419,20.662712 1026.607178,19.884724 
	C1026.980469,19.969339 1026.939453,19.902641 1026.939453,19.902641 
z"/>
<path fill="#000000" opacity="1.000000" stroke="none" 
	d="
M1027.006104,19.998915 
	C1027.170898,19.814199 1027.310181,19.599909 1027.449463,19.385628 
	C1027.408936,19.652378 1027.368408,19.919119 1027.133545,20.044250 
	C1026.939453,19.902641 1026.980469,19.969339 1027.006104,19.998915 
z"/>
</svg>