<svg version="1.1" id="Layer_1" xmlns="http://www.w3.org/2000/svg" xmlns:xlink="http://www.w3.org/1999/xlink" x="0px" y="0px"
	 width="100%" viewBox="0 0 1080 1080" enable-background="new 0 0 1080 1080" xml:space="preserve">
<path fill="none" opacity="1.000000" stroke="none"
	d="
M492.000000,1081.000000 
	C328.018860,1081.000000 164.537735,1081.000000 1.056596,1081.000000 
	C1.037723,1080.852173 1.002319,1080.704468 1.002318,1080.556641 
	C0.999975,720.764832 1.000000,360.973022 1.000000,1.090614 
	C360.898010,1.090614 720.796082,1.090614 1080.847046,1.090614 
	C1080.847046,360.999939 1080.847046,720.999939 1080.847046,1081.000000 
	C884.787048,1081.000000 688.643494,1081.000000 492.000000,1081.000000 
M303.500000,435.033661 
	C499.603638,435.033661 695.707275,435.033661 891.810913,435.033661 
	C890.640686,437.533630 889.094299,438.811554 887.681946,440.223541 
	C859.398438,468.499359 830.915527,496.579956 802.926514,525.144531 
	C779.925049,548.618958 786.051819,587.369507 814.797791,603.190491 
	C834.980469,614.298462 859.754456,609.376404 874.899048,594.073120 
	C928.935242,539.471069 983.427551,485.320465 1037.743530,430.995148 
	C1041.511353,427.226746 1045.431152,423.590332 1048.968750,419.615295 
	C1065.327148,401.233856 1064.714233,371.217896 1047.412842,353.889343 
	C989.838135,296.224548 932.180054,238.643082 874.499268,181.084412 
	C862.093750,168.705170 847.080933,163.706314 829.799072,167.037094 
	C810.487000,170.759186 797.378235,182.432785 791.443848,200.927887 
	C785.566223,219.246185 789.114441,236.329071 802.900635,250.272888 
	C831.370117,279.067841 860.118225,307.587280 888.742920,336.228851 
	C889.805420,337.291962 890.775330,338.447540 892.188904,339.999817 
	C889.325378,339.999817 887.326477,339.999817 885.327576,339.999817 
	C628.869019,339.999817 372.410370,340.116394 115.952126,339.833588 
	C87.889488,339.802643 64.023849,361.743408 65.759628,391.003937 
	C67.136642,414.216675 87.650146,435.023865 111.030952,435.028900 
	C174.853973,435.042725 238.676987,435.033661 303.500000,435.033661 
M63.378681,631.878540 
	C53.242420,642.017761 42.812290,651.882629 33.035774,662.357605 
	C16.584866,679.983765 17.121706,710.616150 34.097599,727.620667 
	C92.029503,785.650208 150.039230,843.602356 208.101562,901.501465 
	C224.024094,917.379211 248.018875,920.465881 267.484344,909.539185 
	C296.019440,893.521301 301.757599,854.664917 278.719421,831.344482 
	C250.492126,802.771484 221.968216,774.491333 193.536835,746.120361 
	C192.413437,744.999390 190.921448,744.247681 189.601196,743.323975 
	C189.882690,742.882690 190.164185,742.441406 190.445679,742.000122 
	C192.373535,742.000122 194.301376,742.000122 196.229233,742.000122 
	C452.221497,742.000122 708.213745,742.000244 964.205994,741.997131 
	C966.538940,741.997131 968.874756,742.018799 971.204407,741.918335 
	C999.904114,740.680298 1021.474121,712.819092 1015.405273,684.848083 
	C1010.457886,662.045837 991.676758,646.976196 968.045593,646.975098 
	C710.720032,646.962891 453.394501,646.966858 196.068954,646.966431 
	C194.137772,646.966431 192.206604,646.966370 190.275421,646.966370 
	C189.891342,646.424744 189.507263,645.883179 189.123199,645.341553 
	C190.515167,644.498352 192.140091,643.890137 193.263626,642.776184 
	C206.400803,629.751709 219.464706,616.653320 232.543686,603.570129 
	C247.861404,588.247498 263.346741,573.087769 278.450317,557.556824 
	C301.737488,533.610718 296.191284,495.283539 267.420135,478.941864 
	C248.970016,468.462402 223.445633,471.379761 207.303253,487.727783 
	C159.761841,535.874817 111.722878,583.530457 63.378681,631.878540 
z"/>
<path fill="#000000" opacity="1.000000" stroke="none" 
	d="
M303.000000,435.033661 
	C238.676987,435.033661 174.853973,435.042725 111.030952,435.028900 
	C87.650146,435.023865 67.136642,414.216675 65.759628,391.003937 
	C64.023849,361.743408 87.889488,339.802643 115.952126,339.833588 
	C372.410370,340.116394 628.869019,339.999817 885.327576,339.999817 
	C887.326477,339.999817 889.325378,339.999817 892.188904,339.999817 
	C890.775330,338.447540 889.805420,337.291962 888.742920,336.228851 
	C860.118225,307.587280 831.370117,279.067841 802.900635,250.272888 
	C789.114441,236.329071 785.566223,219.246185 791.443848,200.927887 
	C797.378235,182.432785 810.487000,170.759186 829.799072,167.037094 
	C847.080933,163.706314 862.093750,168.705170 874.499268,181.084412 
	C932.180054,238.643082 989.838135,296.224548 1047.412842,353.889343 
	C1064.714233,371.217896 1065.327148,401.233856 1048.968750,419.615295 
	C1045.431152,423.590332 1041.511353,427.226746 1037.743530,430.995148 
	C983.427551,485.320465 928.935242,539.471069 874.899048,594.073120 
	C859.754456,609.376404 834.980469,614.298462 814.797791,603.190491 
	C786.051819,587.369507 779.925049,548.618958 802.926514,525.144531 
	C830.915527,496.579956 859.398438,468.499359 887.681946,440.223541 
	C889.094299,438.811554 890.640686,437.533630 891.810913,435.033661 
	C695.707275,435.033661 499.603638,435.033661 303.000000,435.033661 
z"/>
<path fill="#000000" opacity="1.000000" stroke="none" 
	d="
M63.628670,631.628540 
	C111.722878,583.530457 159.761841,535.874817 207.303253,487.727783 
	C223.445633,471.379761 248.970016,468.462402 267.420135,478.941864 
	C296.191284,495.283539 301.737488,533.610718 278.450317,557.556824 
	C263.346741,573.087769 247.861404,588.247498 232.543686,603.570129 
	C219.464706,616.653320 206.400803,629.751709 193.263626,642.776184 
	C192.140091,643.890137 190.515167,644.498352 189.123199,645.341553 
	C189.507263,645.883179 189.891342,646.424744 190.275421,646.966370 
	C192.206604,646.966370 194.137772,646.966431 196.068954,646.966431 
	C453.394501,646.966858 710.720032,646.962891 968.045593,646.975098 
	C991.676758,646.976196 1010.457886,662.045837 1015.405273,684.848083 
	C1021.474121,712.819092 999.904114,740.680298 971.204407,741.918335 
	C968.874756,742.018799 966.538940,741.997131 964.205994,741.997131 
	C708.213745,742.000244 452.221497,742.000122 196.229233,742.000122 
	C194.301376,742.000122 192.373535,742.000122 190.445679,742.000122 
	C190.164185,742.441406 189.882690,742.882690 189.601196,743.323975 
	C190.921448,744.247681 192.413437,744.999390 193.536835,746.120361 
	C221.968216,774.491333 250.492126,802.771484 278.719421,831.344482 
	C301.757599,854.664917 296.019440,893.521301 267.484344,909.539185 
	C248.018875,920.465881 224.024094,917.379211 208.101562,901.501465 
	C150.039230,843.602356 92.029503,785.650208 34.097599,727.620667 
	C17.121706,710.616150 16.584866,679.983765 33.035774,662.357605 
	C42.812290,651.882629 53.242420,642.017761 63.628670,631.628540 
z"/>
</svg>