<svg version="1.1" id="Layer_1" xmlns="http://www.w3.org/2000/svg" x="0px" y="0px"
	 width="100%" viewBox="0 0 1024 1024" enable-background="new 0 0 1024 1024" xml:space="preserve">
<path fill="#000000" opacity="1.000000" stroke="none"
	d="
M656.187012,835.329529 
	C641.571167,843.720337 624.702820,841.833069 613.529907,830.639282 
	C575.504333,792.542847 537.495361,754.429932 499.524017,716.279480 
	C487.332245,704.030273 484.935699,687.749023 493.070038,673.794189 
	C504.052216,654.954041 530.402954,651.174133 546.005493,666.477356 
	C563.850525,683.980042 581.411133,701.772644 599.118408,719.416138 
	C600.492493,720.785217 601.576538,722.633423 604.097717,722.871277 
	C605.533386,720.849426 604.996948,718.456543 604.997253,716.235229 
	C605.018555,566.082275 605.005615,415.929352 604.999939,265.776398 
	C604.999207,245.944916 604.929749,226.112808 605.065857,206.282181 
	C605.162659,192.169357 610.533508,181.028198 623.938110,174.850952 
	C645.785889,164.782867 670.220642,180.200043 670.248169,204.247818 
	C670.331604,277.239136 670.275146,350.230591 670.281006,423.222015 
	C670.288757,519.375610 670.291138,615.529236 670.365356,711.682800 
	C670.368225,715.378174 669.301941,719.268188 671.360718,722.925354 
	C674.385864,722.285522 675.930481,719.940430 677.753418,718.130371 
	C695.012878,700.993164 712.041565,683.620728 729.446899,666.633850 
	C746.980347,649.521973 775.898071,655.678101 784.671387,678.493896 
	C790.072754,692.540833 787.097595,705.350586 776.357056,716.098267 
	C741.726257,750.752075 707.087708,785.398376 672.403687,819.998962 
	C667.223328,825.166809 662.573547,830.906494 656.187012,835.329529 
z"/>
<path fill="#000000" opacity="1.000000" stroke="none" 
	d="
M399.659363,335.999939 
	C399.661407,312.335480 399.682159,289.170959 399.633362,266.006592 
	C399.629425,264.128937 400.499481,261.587311 398.138489,260.665222 
	C395.847412,259.770477 394.632263,262.113708 393.288086,263.452728 
	C375.697174,280.976501 358.247589,298.643311 340.557129,316.065613 
	C327.847565,328.582550 307.424530,328.763550 294.268280,316.830505 
	C279.471771,303.409698 278.676758,281.667389 292.796722,267.462372 
	C328.628784,231.414459 364.584686,195.489594 400.534851,159.559311 
	C403.828308,156.267700 406.733368,152.620193 410.412811,149.670349 
	C424.447357,138.418777 443.567627,139.170090 456.318024,151.884293 
	C491.833557,187.298874 527.271667,222.791153 562.722961,258.270081 
	C566.489319,262.039429 570.421143,265.692993 573.795532,269.795563 
	C585.923828,284.541107 583.961975,304.021912 569.200073,317.636566 
	C556.842529,329.033752 535.886169,328.354431 523.295410,315.904694 
	C505.995636,298.798645 488.864655,281.521942 471.639709,264.340057 
	C470.142548,262.846649 468.909760,260.933167 466.330841,260.494507 
	C464.203461,262.762482 464.542175,265.770569 464.588867,268.397430 
	C465.518921,320.719421 464.917480,373.044098 464.908325,425.366638 
	C464.898468,481.688324 464.264221,538.011658 464.548950,594.330994 
	C464.718231,627.817322 465.213287,661.310181 464.741180,694.788025 
	C464.362823,721.618164 464.779633,748.429260 464.922516,775.248779 
	C464.991058,788.118958 460.546722,798.700073 449.280457,805.747375 
	C438.729523,812.347229 427.656708,812.518616 416.943787,806.860657 
	C405.809113,800.979797 399.714691,791.271301 399.707520,778.453491 
	C399.647034,670.130310 399.669312,561.807129 399.666138,453.483978 
	C399.664978,414.489319 399.662201,375.494629 399.659363,335.999939 
z"/>
</svg>