<svg version="1.1" id="Layer_1" xmlns="http://www.w3.org/2000/svg" xmlns:xlink="http://www.w3.org/1999/xlink" x="0px" y="0px"
	 width="100%" viewBox="0 0 1024 1024" enable-background="new 0 0 1024 1024" xml:space="preserve">
<path fill="#000000" opacity="1.000000" stroke="none" 
	d="
M850.727173,531.378784 
	C845.410278,558.518799 837.077148,584.270203 826.175110,609.168518 
	C808.309021,649.971924 783.451355,686.020630 750.488403,716.015564 
	C741.895447,723.834839 736.131104,732.358398 732.399719,743.103882 
	C727.766357,756.447021 719.954834,768.521423 716.116455,782.241699 
	C713.687683,790.923401 712.260925,799.712219 712.291443,808.768738 
	C712.380127,835.098755 712.335327,861.429260 712.319580,887.759583 
	C712.307373,908.131653 697.578430,923.267883 677.121399,923.299683 
	C602.963379,923.415100 528.804810,923.433838 454.647064,923.241577 
	C442.459106,923.209961 432.538879,917.622620 425.334473,907.673584 
	C422.142426,903.265381 420.539001,898.342346 420.600433,892.744934 
	C420.766754,877.581848 420.436554,862.410645 420.778534,847.253479 
	C420.897797,841.967712 419.580688,839.819763 413.995270,838.822205 
	C381.803253,833.072449 351.643616,821.314392 322.497070,806.757446 
	C319.677795,805.349365 316.817139,804.024048 313.651367,802.504639 
	C312.722961,805.787109 314.391785,808.448975 314.899994,811.214539 
	C316.606567,820.501648 320.144653,829.450134 320.301666,839.018005 
	C320.460419,848.691345 314.866089,856.023376 306.686737,857.248901 
	C297.294159,858.656189 288.104980,852.805298 285.833130,843.313354 
	C279.224213,815.700806 272.716736,788.061707 266.498932,760.359070 
	C263.939423,748.955566 272.737091,738.963196 284.483185,738.604004 
	C307.938110,737.886719 331.390686,737.037537 354.833282,735.996521 
	C365.773224,735.510681 374.976440,742.381409 375.335754,751.914246 
	C375.775696,763.586487 368.318329,771.218689 356.369629,771.354492 
	C348.885834,771.439514 341.372314,770.978699 332.723907,772.724304 
	C360.111267,788.164734 387.955719,799.428650 418.491913,805.503906 
	C419.360291,796.983887 416.146912,790.092590 412.548248,783.407410 
	C408.652588,776.170532 403.447876,769.819702 397.556854,764.144104 
	C371.783569,739.313660 352.032928,710.386658 337.701569,677.625183 
	C317.686096,631.869873 297.341492,586.257935 276.269775,540.978638 
	C267.431091,521.985901 266.941864,503.590302 279.424774,486.202026 
	C291.541138,469.324249 308.277527,462.386261 329.025879,465.129547 
	C353.117798,468.314911 370.155151,481.975952 383.306671,501.387146 
	C391.712311,513.793579 399.844635,526.385193 409.101776,538.883484 
	C409.101776,534.408386 409.102264,529.933350 409.101715,525.458252 
	C409.091125,437.635345 409.047394,349.812378 409.098328,261.989532 
	C409.108246,244.858170 411.554291,228.373611 424.166046,215.274368 
	C440.783752,198.014343 460.822540,192.734558 483.414612,200.210083 
	C505.714111,207.588821 518.107483,223.768921 521.443359,247.053955 
	C522.396301,253.705856 522.293701,260.333618 522.298584,266.983063 
	C522.324829,302.645660 522.302734,338.308289 522.297424,373.970886 
	C522.297180,375.778809 522.297363,377.586700 522.297363,379.932312 
	C528.288818,379.162109 533.478271,376.964355 539.052002,376.358398 
	C561.144775,373.956512 578.593811,381.348816 590.780457,400.093170 
	C592.858459,403.289337 594.387512,404.320160 598.248230,402.868683 
	C626.396912,392.286316 655.166138,402.408356 668.206970,428.904541 
	C668.566406,429.634766 669.099121,430.279724 669.760498,431.281769 
	C674.975769,429.699249 679.959229,427.380829 685.386841,426.661163 
	C704.694092,424.101196 721.103027,429.968719 734.948120,443.504791 
	C745.632812,453.951019 750.782410,466.923004 751.247375,481.538391 
	C752.741760,528.511108 752.117004,575.507324 751.736572,622.487549 
	C751.634521,635.084717 752.489502,647.810791 750.398376,660.382202 
	C750.132629,661.979858 750.362061,663.659790 750.362061,666.095093 
	C755.032166,662.155884 757.711731,657.590027 760.779297,653.382141 
	C788.231567,615.724915 806.869080,574.117310 816.629578,528.537598 
	C817.045532,526.595337 817.682068,524.689575 818.347107,522.813293 
	C821.628235,513.556458 829.839844,508.138092 837.717957,509.980957 
	C846.993164,512.150635 852.370422,520.729187 850.727173,531.378784 
M490.662018,479.499695 
	C490.660400,406.677551 490.643341,333.855408 490.702271,261.033295 
	C490.705261,257.332886 490.316925,253.723877 489.514771,250.162140 
	C486.142181,235.187042 470.455231,226.847870 456.233978,232.399872 
	C447.350403,235.868027 441.356354,245.753082 441.328857,257.484558 
	C441.191071,316.308594 441.091461,375.132782 441.029388,433.956940 
	C440.981750,479.116821 441.058502,524.276855 440.962189,569.436584 
	C440.943359,578.268005 440.486664,587.062256 434.954651,594.710815 
	C426.516418,606.377686 411.595490,606.175232 403.948303,594.147888 
	C401.892670,590.914795 399.849121,587.674072 397.784668,584.446594 
	C384.412781,563.541992 371.175690,542.549377 357.606659,521.773499 
	C350.214355,510.455078 340.631256,501.743408 326.791016,498.862946 
	C318.074738,497.048889 310.946320,499.464050 305.645325,506.610382 
	C300.944550,512.947571 301.550201,519.418945 305.067780,526.260498 
	C324.648254,564.344177 341.100311,603.862488 357.566772,643.330322 
	C372.889160,680.056091 392.462189,713.446533 421.909088,740.946411 
	C443.200226,760.829773 453.389008,786.055664 452.473175,815.726257 
	C451.779449,838.201416 452.336853,860.715393 452.351013,883.212097 
	C452.355286,889.972290 453.001495,890.650024 459.837158,890.652466 
	C498.831390,890.666321 537.826050,890.759766 576.819763,890.612854 
	C609.306763,890.490417 641.795410,891.123230 674.284058,890.297913 
	C679.195129,890.173218 680.725891,888.508911 680.709778,883.869934 
	C680.614075,856.374329 680.785278,828.877625 680.643738,801.382385 
	C680.559937,785.109558 684.299744,769.740784 690.845154,754.994995 
	C699.822693,734.769958 708.962158,714.655212 713.737915,692.845398 
	C719.071777,668.486633 720.084961,643.727417 720.485596,619.008057 
	C721.111938,580.357178 720.697449,541.688660 720.601746,503.027893 
	C720.586914,497.055267 720.228333,491.045258 719.477173,485.122528 
	C718.591309,478.138885 716.604309,471.510895 711.587463,466.081696 
	C705.237610,459.209869 695.187866,456.830353 685.919006,460.359009 
	C676.054138,464.114563 674.109070,467.247986 674.103943,479.434540 
	C674.099243,490.599518 674.122192,501.764587 674.090454,512.929443 
	C674.084351,515.090454 674.044800,517.274048 673.742249,519.407715 
	C672.410034,528.802368 665.879761,533.980835 656.339661,533.326782 
	C648.312439,532.776428 642.675842,526.164734 642.668274,517.218506 
	C642.651611,497.554718 642.613586,477.890747 642.704590,458.227386 
	C642.720215,454.852478 642.277283,451.581177 641.504395,448.357056 
	C638.949768,437.700043 628.150085,430.121552 617.549622,431.423096 
	C606.303711,432.803894 598.380066,441.815460 598.353821,453.373596 
	C598.317444,469.371155 598.363037,485.368896 598.341919,501.366516 
	C598.329346,510.893860 591.846924,517.593018 582.636230,517.671997 
	C573.107117,517.753723 566.667847,511.148041 566.661987,501.212646 
	C566.648193,477.716095 566.674805,454.219513 566.640259,430.723022 
	C566.637390,428.745514 566.552917,426.703949 566.072144,424.801941 
	C563.361816,414.081116 553.607910,408.020416 541.426636,409.350555 
	C530.859863,410.504395 522.512939,419.197449 522.393616,429.781525 
	C522.172119,449.443115 522.216309,469.108032 522.217041,488.771545 
	C522.217102,491.957611 521.987122,495.099976 521.270691,498.185608 
	C519.599854,505.381226 512.222229,510.427094 504.693359,509.614441 
	C496.086884,508.685455 490.764343,503.168945 490.671448,494.997192 
	C490.616486,490.165222 490.661530,485.332062 490.662018,479.499695 
z"/>
<path fill="#000000" opacity="1.000000" stroke="none" 
	d="
M840.600586,477.975769 
	C835.782715,476.946655 832.280457,474.520905 829.236328,471.308228 
	C810.555481,451.592896 791.744141,431.999298 773.232849,412.126160 
	C763.004578,401.145386 766.626099,385.991821 780.093506,382.214020 
	C787.313354,380.188782 793.167786,383.051422 798.065796,388.175812 
	C804.513123,394.921143 810.826416,401.794373 817.210938,408.599854 
	C818.651245,410.135101 820.147705,411.617706 822.607544,414.138153 
	C815.326538,379.263580 806.286804,346.528809 791.129395,315.730865 
	C763.292786,259.170380 723.121582,213.578644 669.247437,180.697586 
	C631.363525,157.575836 590.280151,142.636581 546.207458,136.175537 
	C526.355286,133.265213 506.389008,132.351852 486.461975,133.561035 
	C454.110992,135.524124 422.692352,142.349518 392.243683,153.726135 
	C382.673309,157.301941 373.124420,161.597565 362.482666,161.372330 
	C351.913116,161.148651 344.756836,150.082260 348.995483,140.454880 
	C351.944031,133.757660 357.370483,129.839096 363.827606,127.075325 
	C388.394745,116.560143 414.022736,109.611610 440.214203,104.666801 
	C468.604980,99.306793 497.323029,97.316399 526.117493,98.843452 
	C552.922424,100.264992 579.083496,106.128250 604.664185,114.147835 
	C707.566833,146.407959 780.565613,212.775604 826.029175,309.878540 
	C840.112061,339.957367 848.681335,371.942413 854.420349,404.652588 
	C854.702637,406.261444 855.250000,407.823761 855.908447,410.284058 
	C861.297729,402.542999 866.225830,395.338898 871.297546,388.237366 
	C873.517822,385.128387 875.858398,382.069000 878.447144,379.266907 
	C884.237549,372.999420 892.568359,371.922668 899.817932,376.256195 
	C906.633484,380.330261 909.860046,388.979065 907.540222,396.614471 
	C906.850342,398.885040 905.836731,400.947510 904.533875,402.889862 
	C890.063293,424.463104 875.662842,446.084076 861.062378,467.569122 
	C856.344360,474.511871 850.145386,479.275116 840.600586,477.975769 
z"/>
<path fill="#000000" opacity="1.000000" stroke="none" 
	d="
M306.568115,138.183594 
	C309.257507,138.748199 311.542206,139.162933 313.820923,139.608337 
	C324.099274,141.617401 330.756134,150.500702 329.145660,160.720490 
	C325.427185,184.317535 321.460693,207.875443 317.622772,231.453796 
	C316.796967,236.527313 316.007935,241.609497 315.344574,246.706238 
	C313.997833,257.053436 304.644531,264.763336 295.194519,263.217468 
	C285.593689,261.646942 279.250153,251.743515 280.926605,241.378708 
	C282.819397,229.676270 284.454803,217.932190 286.403870,204.852524 
	C276.002869,213.152054 267.263092,221.074646 259.312592,229.775787 
	C229.697510,262.186768 206.000336,298.312805 190.986221,339.815430 
	C181.457245,366.155792 175.167343,393.240143 171.105927,420.959320 
	C168.071945,441.666260 167.366837,462.446381 168.591766,483.172668 
	C170.637772,517.791321 179.724030,550.864624 192.781128,582.966614 
	C208.807388,622.368652 232.402512,656.787903 260.592346,688.303345 
	C265.975372,694.321472 269.250427,700.907715 266.431885,709.236206 
	C262.107635,722.013855 247.384857,725.833130 238.122101,715.996765 
	C223.148483,700.095825 209.631363,682.949341 197.369385,664.858643 
	C168.300888,621.972534 149.389374,574.913452 139.853821,524.043640 
	C134.584000,495.930481 133.181107,467.464050 134.954239,439.060760 
	C138.949707,375.057953 156.748978,315.162720 191.732086,260.968903 
	C212.354416,229.021957 236.945343,200.423050 266.004272,175.774551 
	C268.119110,173.980698 270.199493,172.146240 273.009064,169.713028 
	C265.852142,167.171600 259.266144,166.688171 252.887024,165.363373 
	C242.973541,163.304611 233.004089,161.505768 223.119598,159.319885 
	C213.897614,157.280502 207.846909,149.154190 208.717117,140.520203 
	C209.663910,131.125992 217.170105,124.530144 227.204605,124.663406 
	C238.901718,124.818748 250.114059,128.303375 261.569580,130.131180 
	C276.474884,132.509430 291.300690,135.385834 306.568115,138.183594 
z"/>
</svg>