<svg version="1.1" id="Layer_1" xmlns="http://www.w3.org/2000/svg" xmlns:xlink="http://www.w3.org/1999/xlink" x="0px" y="0px"
	 width="100%" viewBox="0 0 1024 1024" enable-background="new 0 0 1024 1024" xml:space="preserve">
<path fill="#000000" opacity="1.000000" stroke="none" 
	d="
M314.606262,493.999878 
	C314.436951,441.183044 314.259125,388.866302 314.108459,336.549438 
	C314.082428,327.503479 315.307068,318.710205 318.783966,310.223480 
	C327.136047,289.836945 347.949493,276.325439 369.964905,275.482361 
	C398.938904,274.372681 424.149963,294.139862 429.071106,325.188232 
	C429.381531,327.146698 429.336304,329.172760 429.337219,331.167419 
	C429.352600,364.993347 429.349060,398.819275 429.349670,432.645203 
	C429.349731,434.609833 429.349670,436.574463 429.349670,439.137421 
	C466.360413,427.662231 493.400452,438.560059 510.307434,473.539917 
	C516.451538,471.853119 522.170959,468.755463 528.551208,467.468658 
	C555.973816,461.938019 583.261658,476.045197 594.407654,501.799683 
	C597.771606,509.572662 597.771606,509.572662 605.749207,507.082855 
	C639.360107,496.592896 674.034851,518.021729 679.483398,552.499634 
	C680.086731,556.317444 680.333191,560.081909 680.332703,563.904968 
	C680.328430,600.063721 679.972290,636.226685 680.404663,672.380249 
	C681.042236,725.690002 670.242493,776.277710 646.770691,824.250793 
	C639.113220,839.901489 631.843079,855.815979 627.926819,873.015564 
	C625.160156,885.166321 625.326172,897.434692 625.307068,909.735535 
	C625.281189,926.383972 617.423523,934.345947 600.922607,934.350586 
	C520.606873,934.373291 440.290314,934.190857 359.976166,934.551758 
	C346.809204,934.610901 335.824982,927.697571 335.986786,910.531616 
	C336.090210,899.559814 336.124054,888.651001 333.163788,877.860535 
	C329.096771,863.035767 319.900146,851.502441 310.151337,840.311462 
	C284.889679,811.312866 265.414886,778.702637 249.095490,744.030701 
	C227.613251,698.390015 207.502197,652.165344 189.347794,605.100403 
	C185.144241,594.202759 182.236923,583.028748 182.613266,571.112427 
	C183.511490,542.672180 201.967392,523.061096 227.867981,521.488892 
	C254.540604,519.869812 274.735107,530.438354 288.750397,552.738464 
	C295.741852,563.862793 301.711395,575.629456 308.143402,587.105469 
	C309.925354,590.284790 311.707855,593.463928 314.606964,596.526245 
	C314.606964,562.517456 314.606964,528.508667 314.606262,493.999878 
M645.652893,573.512817 
	C645.645874,569.847412 645.781067,566.175232 645.606201,562.517822 
	C644.992493,549.684570 635.194641,540.230103 622.706543,540.298279 
	C610.298706,540.366028 600.594543,550.065552 600.163696,562.861023 
	C600.085266,565.191833 600.199341,567.530579 600.083191,569.858582 
	C599.505493,581.435791 591.667236,589.567993 581.439148,589.260193 
	C571.312805,588.955444 563.670898,580.250061 563.655701,568.945190 
	C563.635254,553.779419 563.731018,538.613098 563.621094,523.448120 
	C563.532227,511.182587 550.721985,500.299988 538.507629,501.918304 
	C523.436584,503.915131 514.372498,514.180908 514.348389,529.330872 
	C514.325806,543.496704 514.501953,557.664917 514.290283,571.827576 
	C514.094055,584.955200 500.131042,593.317627 488.501373,587.260132 
	C481.473724,583.599731 477.681000,577.538879 477.668427,569.464294 
	C477.629181,544.299194 477.635559,519.133972 477.663727,493.968842 
	C477.669312,488.975372 476.371643,484.395569 473.412262,480.407257 
	C466.817871,471.519989 456.197815,467.984802 446.439423,471.274841 
	C435.668945,474.906128 429.369537,483.628510 429.358307,495.071167 
	C429.333435,520.402954 429.377014,545.734863 429.330536,571.066589 
	C429.314697,579.700195 424.256226,586.057068 415.695435,588.515625 
	C408.261688,590.650513 400.149261,587.490295 395.769745,580.719177 
	C393.337799,576.959167 392.610138,572.818420 392.613342,568.358643 
	C392.669586,490.363373 392.656464,412.368073 392.657349,334.372803 
	C392.657379,332.706268 392.730774,331.034271 392.624634,329.374115 
	C391.890717,317.895416 379.236328,308.522614 368.041138,311.135101 
	C356.656067,313.791931 350.347778,321.837982 350.347229,333.801788 
	C350.342072,442.628540 350.349915,551.455322 350.328064,660.282043 
	C350.327576,662.763123 350.427307,665.354919 349.784088,667.704468 
	C347.909576,674.551453 343.393250,679.073914 336.326782,680.199402 
	C328.413788,681.459717 321.983429,678.927124 317.642944,671.706543 
	C298.508575,639.875427 279.903809,607.736206 261.756653,575.335938 
	C256.756226,566.408081 249.878159,560.165894 240.035507,557.461853 
	C224.437393,553.176697 214.410553,563.070496 218.006683,578.902771 
	C220.193771,588.531616 223.920639,597.610474 227.676254,606.662231 
	C244.712479,647.722656 262.688293,688.371643 281.306274,728.740112 
	C293.481018,755.138000 307.009277,780.684265 325.811554,803.119202 
	C337.157654,816.657288 348.297821,830.374268 356.886688,845.918213 
	C365.273865,861.097046 370.936523,877.120117 371.305786,894.659668 
	C371.370270,897.722107 372.551636,898.835144 375.495392,898.713379 
	C378.656433,898.582581 381.827087,898.685974 384.993561,898.685425 
	C451.156219,898.673096 517.318970,898.617004 583.481384,898.739746 
	C588.232727,898.748535 589.929443,897.457275 589.763428,892.566284 
	C589.520935,885.423950 590.906677,878.352295 592.218384,871.339844 
	C596.349976,849.251221 604.785950,828.652161 614.152222,808.374329 
	C620.223511,795.230103 626.688721,782.256104 631.691162,768.640015 
	C641.610474,741.640991 645.266113,713.534973 645.561584,685.000732 
	C645.943054,648.173584 645.653381,611.339478 645.652893,573.512817 
z"/>
<path fill="#000000" opacity="1.000000" stroke="none" 
	d="
M238.377838,166.399384 
	C266.053070,133.356995 300.906677,112.760300 343.108826,107.016388 
	C403.747711,98.763161 456.482117,116.039162 498.504211,161.525009 
	C521.584351,186.507553 534.807373,216.605942 540.356201,250.087143 
	C541.462097,256.760101 543.476746,263.405579 541.693298,270.284271 
	C539.289124,279.556946 531.209351,285.746735 522.369385,285.084198 
	C513.021118,284.383575 505.498993,276.676697 504.670441,267.080872 
	C501.799530,233.831589 489.143829,204.937607 465.276276,181.483231 
	C442.822601,159.418289 415.787567,146.644791 384.314026,143.183258 
	C331.544952,137.379547 279.315765,163.993088 253.388962,210.298126 
	C243.587021,227.804337 237.613037,246.484268 236.301178,266.589905 
	C235.609787,277.185974 229.437164,283.585205 218.783569,285.012329 
	C211.037872,286.049927 202.871429,280.672760 200.353027,272.647614 
	C198.825989,267.781525 199.243011,262.640900 199.807007,257.760864 
	C203.742004,223.713760 216.013214,193.092590 238.377838,166.399384 
z"/>
<path fill="#000000" opacity="1.000000" stroke="none" 
	d="
M755.803955,394.781494 
	C772.745361,378.489288 790.655273,363.690521 805.803528,346.088104 
	C812.132385,338.733978 817.269531,330.674469 819.705627,320.999207 
	C825.183594,299.242645 806.065979,282.493774 783.464722,290.032745 
	C771.971924,293.866302 767.024353,303.060181 765.686768,314.352539 
	C765.196289,318.493561 763.658386,319.545441 759.756165,319.437042 
	C750.596680,319.182526 741.423706,319.240387 732.260071,319.397369 
	C728.787231,319.456818 727.716675,318.161896 727.593811,314.740448 
	C726.575989,286.399323 745.058167,263.212524 773.403809,257.814880 
	C793.057983,254.072327 812.443237,254.578873 831.124084,262.675934 
	C854.111084,272.639435 862.374573,299.894592 859.816956,316.684937 
	C857.160034,334.127319 848.076294,347.992218 837.059265,360.870850 
	C821.980408,378.497559 804.742493,394.022552 788.086182,410.105957 
	C787.391907,410.776337 786.757690,411.508911 785.142273,413.225281 
	C811.354492,413.225281 836.459534,413.225281 862.239380,413.225281 
	C862.239380,423.315125 862.251404,432.579498 862.228210,441.843811 
	C862.224182,443.468811 861.229431,444.220551 859.673889,444.284882 
	C858.509033,444.333099 857.342712,444.368042 856.177002,444.367981 
	C815.844727,444.366302 775.512085,444.285797 735.180481,444.449921 
	C730.286438,444.469818 729.131470,443.109131 728.457703,438.108490 
	C726.635864,424.586914 731.171570,414.808533 742.351562,407.230164 
	C747.253784,403.907227 751.174622,399.136536 755.803955,394.781494 
z"/>
<path fill="#000000" opacity="1.000000" stroke="none" 
	d="
M671.511841,354.449280 
	C668.160217,359.246735 665.161743,363.860748 661.844177,368.232605 
	C659.754578,370.986298 659.582275,373.063019 661.657043,376.123322 
	C675.862488,397.076782 689.837219,418.186737 703.870300,439.256897 
	C704.857910,440.739716 706.212341,442.083069 706.212219,444.029907 
	C704.944275,445.571381 703.328674,444.891205 701.946106,444.899414 
	C692.617310,444.954590 683.277710,444.649170 673.963074,445.010925 
	C669.363281,445.189575 666.630981,443.495422 664.180786,439.810150 
	C656.346985,428.027588 648.250305,416.419647 640.240540,404.754333 
	C639.321777,403.416321 638.310669,402.141815 636.944946,400.302582 
	C630.767761,409.763702 624.960693,418.822937 618.976440,427.763550 
	C615.196594,433.410583 612.902832,441.024048 607.108643,444.084137 
	C601.503296,447.044586 594.043945,444.853424 587.404785,444.863373 
	C581.688232,444.871979 575.898804,445.468506 569.259949,444.328461 
	C572.757202,439.139435 575.689331,434.762268 578.648132,430.403229 
	C590.330750,413.192108 601.946350,395.934662 613.769836,378.820801 
	C616.294617,375.166290 616.372253,372.539398 613.709106,368.695404 
	C600.435486,349.536224 587.541504,330.113861 574.538574,310.767548 
	C573.649902,309.445374 572.189819,308.331787 572.582458,306.124573 
	C575.758057,305.214661 579.075073,305.712555 582.330811,305.681000 
	C590.659729,305.600189 598.994629,305.813873 607.317322,305.571289 
	C610.946472,305.465485 613.163025,306.812683 615.045166,309.785065 
	C621.814453,320.475952 628.745056,331.064911 635.639404,341.676361 
	C636.619080,343.184326 637.376343,344.905853 639.816223,346.247375 
	C643.641479,340.144867 647.496765,334.030853 651.314697,327.893677 
	C655.272339,321.531982 659.195679,315.148987 663.129883,308.772736 
	C664.102722,307.196075 665.027405,305.666168 667.264099,305.672729 
	C679.237000,305.707916 691.210144,305.689331 704.865295,305.689331 
	C693.337463,322.553528 682.533691,338.358459 671.511841,354.449280 
z"/>
<path fill="#000000" opacity="1.000000" stroke="none" 
	d="
M302.379700,216.399673 
	C317.762299,199.052109 336.915466,189.110672 359.386383,186.880142 
	C411.343811,181.722687 449.700836,213.068985 458.987854,258.385925 
	C459.914032,262.905334 460.173553,267.675629 458.737274,272.225006 
	C456.296112,279.957245 450.123596,284.307373 441.805756,284.382904 
	C433.109741,284.461884 426.702393,280.100098 423.905029,271.991455 
	C423.043243,269.493530 422.563568,266.860016 421.965118,264.275604 
	C417.014587,242.896378 402.950226,230.293365 382.416534,225.034973 
	C362.076050,219.826035 344.718323,226.300659 330.456055,241.341949 
	C323.014709,249.189774 319.220612,258.804626 317.221283,269.347656 
	C315.609924,277.844666 309.274841,283.729370 301.975433,284.348083 
	C292.376190,285.161682 285.739014,281.592590 282.328400,273.937561 
	C279.721436,268.086334 280.639282,262.206757 282.048859,256.348236 
	C285.610870,241.543884 292.207428,228.250778 302.379700,216.399673 
z"/>
</svg>