<svg version="1.1" id="Layer_1" xmlns="http://www.w3.org/2000/svg" xmlns:xlink="http://www.w3.org/1999/xlink" x="0px" y="0px"
	 width="100%" viewBox="0 0 1080 1080" enable-background="new 0 0 1080 1080" xml:space="preserve">
<path fill="#FFFFFF" opacity="1.000000" stroke="none" 
	d="
M579.000000,1081.000000 
	C386.022217,1081.000000 193.544434,1081.000000 1.033320,1081.000000 
	C1.033320,721.063782 1.033320,361.127502 1.033320,1.095633 
	C360.894684,1.095633 720.789368,1.095633 1080.842041,1.095633 
	C1080.842041,360.999939 1080.842041,720.999939 1080.842041,1081.000000 
	C913.793701,1081.000000 746.646851,1081.000000 579.000000,1081.000000 
M942.405518,84.094383 
	C931.800049,73.434677 921.194519,62.774979 910.240356,51.764824 
	C780.044678,181.961014 650.105835,311.900391 519.070801,442.935944 
	C397.955627,321.400818 276.977448,200.003143 156.842972,79.452103 
	C130.738785,105.481491 105.069054,131.077682 79.358391,156.714691 
	C199.922394,277.640381 320.827728,398.908417 441.597107,520.040100 
	C370.036835,591.597778 298.164307,663.467712 226.086899,735.542542 
	C194.085327,703.858093 161.840103,671.932373 129.267593,639.682617 
	C95.614670,765.107666 62.145447,889.848022 28.511803,1015.201233 
	C155.262512,981.861145 281.075012,948.767822 406.259888,915.839661 
	C372.472931,881.227539 338.882812,846.817139 305.948151,813.078125 
	C377.317871,741.698792 449.130615,669.876343 521.224243,597.772949 
	C595.668884,672.547913 670.535828,747.747070 745.630066,823.174438 
	C715.040955,854.103027 684.166992,885.319519 652.720947,917.114441 
	C778.277283,950.595520 903.023926,983.860596 1028.461426,1017.309998 
	C994.996643,890.714600 961.769531,765.018250 928.332336,638.527161 
	C892.990845,674.228088 858.154114,709.419128 823.201416,744.727295 
	C748.066284,669.265869 673.309265,594.184265 598.048157,518.596313 
	C727.443054,389.201660 857.362610,259.282349 987.613892,129.031326 
	C972.677979,114.186180 957.791687,99.390396 942.405518,84.094383 
z"/>
<path fill="#000000" opacity="1.000000" stroke="none" 
	d="
M942.655457,84.344498 
	C957.791687,99.390396 972.677979,114.186180 987.613892,129.031326 
	C857.362610,259.282349 727.443054,389.201660 598.048157,518.596313 
	C673.309265,594.184265 748.066284,669.265869 823.201416,744.727295 
	C858.154114,709.419128 892.990845,674.228088 928.332336,638.527161 
	C961.769531,765.018250 994.996643,890.714600 1028.461426,1017.309998 
	C903.023926,983.860596 778.277283,950.595520 652.720947,917.114441 
	C684.166992,885.319519 715.040955,854.103027 745.630066,823.174438 
	C670.535828,747.747070 595.668884,672.547913 521.224243,597.772949 
	C449.130615,669.876343 377.317871,741.698792 305.948151,813.078125 
	C338.882812,846.817139 372.472931,881.227539 406.259888,915.839661 
	C281.075012,948.767822 155.262512,981.861145 28.511803,1015.201233 
	C62.145447,889.848022 95.614670,765.107666 129.267593,639.682617 
	C161.840103,671.932373 194.085327,703.858093 226.086899,735.542542 
	C298.164307,663.467712 370.036835,591.597778 441.597107,520.040100 
	C320.827728,398.908417 199.922394,277.640381 79.358391,156.714691 
	C105.069054,131.077682 130.738785,105.481491 156.842972,79.452103 
	C276.977448,200.003143 397.955627,321.400818 519.070801,442.935944 
	C650.105835,311.900391 780.044678,181.961014 910.240356,51.764824 
	C921.194519,62.774979 931.800049,73.434677 942.655457,84.344498 
z"/>
</svg>