<?xml version="1.0" encoding="UTF-8"?>
<svg version="1.1" xmlns="http://www.w3.org/2000/svg" width="360" height="360">
<path d="M0 0 C118.8 0 237.6 0 360 0 C360 118.8 360 237.6 360 360 C241.2 360 122.4 360 0 360 C0 241.2 0 122.4 0 0 Z " fill="#FEFEFE" transform="translate(0,0)"/>
<path d="M0 0 C0.66 0 1.32 0 2 0 C2.495 1.98 2.495 1.98 3 4 C3.66 4 4.32 4 5 4 C5.495 5.98 5.495 5.98 6 8 C6.66 8 7.32 8 8 8 C9.15625 9.4765625 9.15625 9.4765625 10.5 11.625 C12.45912777 14.68552797 14.47057529 17.67839407 16.6171875 20.609375 C17.07158203 21.23118652 17.52597656 21.85299805 17.99414062 22.49365234 C18.90697751 23.73734419 19.82487471 24.97733936 20.74804688 26.21337891 C24 30.66925189 24 30.66925189 24 34 C25.485 34.495 25.485 34.495 27 35 C28.03013277 36.64821244 29.02065076 38.32111559 30 40 C31.82568253 42.36481026 33.69134675 44.69223875 35.57421875 47.01171875 C37 49 37 49 37 51 C-1.61 51 -40.22 51 -80 51 C-79.67 50.01 -79.34 49.02 -79 48 C-78.34 48 -77.68 48 -77 48 C-76.7525 47.4225 -76.505 46.845 -76.25 46.25 C-74.81700012 43.67060021 -73.21575324 41.93878408 -71 40 C-70.34 40 -69.68 40 -69 40 C-68.7525 39.4225 -68.505 38.845 -68.25 38.25 C-66.81700012 35.67060021 -65.21575324 33.93878408 -63 32 C-62.34 32 -61.68 32 -61 32 C-60.7525 31.4225 -60.505 30.845 -60.25 30.25 C-58.81700012 27.67060021 -57.21575324 25.93878408 -55 24 C-54.34 24 -53.68 24 -53 24 C-52.7525 23.4225 -52.505 22.845 -52.25 22.25 C-50.81700012 19.67060021 -49.21575324 17.93878408 -47 16 C-46.34 16 -45.68 16 -45 16 C-44.79375 15.443125 -44.5875 14.88625 -44.375 14.3125 C-42.39586833 10.98396038 -40.15974304 9.25695931 -37 7 C-32.90113331 8.3662889 -32.56698888 10.20389503 -30.625 14 C-30.01785156 15.16917969 -29.41070312 16.33835938 -28.78515625 17.54296875 C-28.19605469 18.68378906 -27.60695312 19.82460937 -27 21 C-26.02882977 22.77523137 -25.0509396 24.54682585 -24.0625 26.3125 C-23.66160156 27.03050781 -23.26070312 27.74851563 -22.84765625 28.48828125 C-22.56792969 28.98714844 -22.28820312 29.48601562 -22 30 C-18.758299 26.13489496 -16.05002919 22.05354376 -13.3671875 17.79296875 C-12.91601562 17.20128906 -12.46484375 16.60960937 -12 16 C-11.34 16 -10.68 16 -10 16 C-9.71125 15.236875 -9.4225 14.47375 -9.125 13.6875 C-8 11 -8 11 -6 8 C-5.34 8 -4.68 8 -4 8 C-3.71125 7.236875 -3.4225 6.47375 -3.125 5.6875 C-2 3 -2 3 0 0 Z " fill="#CDCDCD" transform="translate(221,160)"/>
<path d="M0 0 C3.7625364 1.2541788 4.25903105 2.91809435 6.00756836 6.3215332 C6.3763208 7.06105225 6.74507324 7.80057129 7.125 8.5625 C7.9186523 10.11036129 8.71427861 11.65721176 9.51171875 13.203125 C9.9195459 13.99654297 10.32737305 14.78996094 10.74755859 15.60742188 C13.08455312 20.07185586 15.58799151 24.44178079 18.08056641 28.82055664 C23.01277149 37.5019117 23.01277149 37.5019117 22.9375 40.4375 C21.21990053 45.13227187 17.229451 47.81062405 13.5 50.9375 C10.22681225 53.70058057 7.69117688 56.67143912 5 60 C1.5454403 63.63171661 -2.15275419 66.79396183 -6 70 C-8.86082718 72.71778582 -11.47301929 75.53914808 -14 78.5625 C-16.43195146 81.44227883 -19.00554608 83.69657391 -22 86 C-24.58885147 88.46256603 -26.72539725 90.49964566 -28.44921875 93.640625 C-31.96607647 96.89358375 -34.51627167 96.51602555 -39.171875 96.43945312 C-40.18765625 96.39755859 -41.2034375 96.35566406 -42.25 96.3125 C-43.28125 96.28994141 -44.3125 96.26738281 -45.375 96.24414062 C-47.91814065 96.18527163 -50.45833113 96.10310065 -53 96 C-53 95.01 -53 94.02 -53 93 C-52.34 93 -51.68 93 -51 93 C-50.690625 92.05125 -50.38125 91.1025 -50.0625 90.125 C-49 87 -49 87 -48 85 C-47.34 85 -46.68 85 -46 85 C-45.88398437 84.00613281 -45.88398437 84.00613281 -45.765625 82.9921875 C-44.73339418 78.95806092 -42.81605834 75.71901018 -40.75 72.125 C-40.09269897 70.96218506 -40.09269897 70.96218506 -39.42211914 69.77587891 C-38.46484739 68.08394898 -37.50450656 66.39375274 -36.54150391 64.70507812 C-34.94078472 61.89608722 -33.35009183 59.081614 -31.76171875 56.265625 C-29.54452898 52.33561282 -27.32462235 48.40716355 -25.1015625 44.48046875 C-18.80440772 33.35600633 -12.54289429 22.21294858 -6.3605957 11.02416992 C-4.30320011 7.30859996 -2.21609316 3.62438463 0 0 Z " fill="#CCCCCC" transform="translate(155,115)"/>
<path d="M0 0 C0 39.6 0 79.2 0 120 C-46.86 120 -93.72 120 -142 120 C-138 115 -138 115 -135 114 C-133.24917186 113.90962454 -131.49505588 113.87804173 -129.74189758 113.87974548 C-128.65234772 113.87837082 -127.56279785 113.87699615 -126.44023132 113.87557983 C-124.64704216 113.88097275 -124.64704216 113.88097275 -122.81762695 113.88647461 C-120.92965393 113.88625557 -120.92965393 113.88625557 -119.00354004 113.8860321 C-115.55133421 113.8857449 -112.09916304 113.8916293 -108.64696527 113.89860606 C-105.03948151 113.9048523 -101.43199699 113.90544441 -97.82450867 113.90663147 C-90.99286081 113.90974103 -84.16122893 113.91794938 -77.32958812 113.92798096 C-68.09824098 113.94124236 -58.86688949 113.94664503 -49.63553524 113.95248318 C-35.09034485 113.96188951 -20.54518819 113.98181094 -6 114 C-6 78.36 -6 42.72 -6 6 C-12.93 6 -19.86 6 -27 6 C-21.3917459 -5.21650821 -15.25911809 0 0 0 Z " fill="#CDCDCD" transform="translate(270,103)"/>
<path d="M0 0 C1.53616801 0.00138269 1.53616801 0.00138269 3.10336971 0.00279331 C4.85978283 0.00073132 4.85978283 0.00073132 6.65167904 -0.00137234 C8.59591511 0.00402058 8.59591511 0.00402058 10.57942867 0.00952244 C11.94901687 0.00980431 13.31860521 0.00964658 14.68819332 0.00907993 C18.41736714 0.00879195 22.14650906 0.01468874 25.87567544 0.02165389 C29.76878178 0.02788736 33.66188879 0.02849122 37.55499935 0.0296793 C44.93211912 0.03279263 52.30922415 0.04100605 59.68633741 0.05102879 C68.08281309 0.06218985 76.47928945 0.06770036 84.87577069 0.07272422 C102.15256822 0.08318867 119.42935138 0.10078815 136.70613766 0.12304783 C135.55333329 2.90443304 134.96367434 4.23169853 132.70613766 6.12304783 C128.59836706 7.05255969 124.51296516 6.87952624 120.31844234 6.80420017 C119.04989407 6.80507633 117.78134579 6.80595249 116.47435665 6.8068552 C112.99898715 6.80857653 109.52486054 6.77330744 106.04977989 6.73141146 C102.41700642 6.69389867 98.78420432 6.69037873 95.15126705 6.68325901 C88.27334463 6.66461153 81.39599454 6.61537666 74.51832414 6.55516207 C65.22352696 6.47555217 55.92857322 6.44316949 46.63352108 6.40814877 C31.99063125 6.35173338 17.34894919 6.23220186 2.70613766 6.12304783 C2.70613766 41.76304783 2.70613766 77.40304783 2.70613766 114.12304783 C9.30613766 114.12304783 15.90613766 114.12304783 22.70613766 114.12304783 C22.04613766 115.44304783 21.38613766 116.76304783 20.70613766 118.12304783 C20.04613766 118.12304783 19.38613766 118.12304783 18.70613766 118.12304783 C18.70613766 118.78304783 18.70613766 119.44304783 18.70613766 120.12304783 C11.44613766 120.12304783 4.18613766 120.12304783 -3.29386234 120.12304783 C-3.31640976 104.62464653 -3.33484175 89.1262533 -3.34567451 73.62784004 C-3.35083737 66.43214488 -3.35787987 59.23646061 -3.3693018 52.04077244 C-3.37924895 45.77120088 -3.38571584 39.50163721 -3.38795084 33.23205799 C-3.38925789 29.91039162 -3.39286232 26.58875317 -3.3995924 23.2670927 C-3.40679862 19.56484836 -3.40785346 15.86265152 -3.40738773 12.16040134 C-3.41098301 11.05125874 -3.41457829 9.94211613 -3.41828251 8.79936314 C-3.41690784 7.79670414 -3.41553318 6.79404514 -3.41411686 5.76100254 C-3.41503865 4.88437741 -3.41596045 4.00775229 -3.41691017 3.10456276 C-3.23786426 0.22127621 -2.88873185 0.15495794 0 0 Z " fill="#CDCDCD" transform="translate(93.29386234283447,102.87695217132568)"/>
<path d="M0 0 C1.98 0.99 1.98 0.99 4 2 C3.41591091 5.46042284 2.26977462 7.10242223 -0.199646 9.56040955 C-0.88375549 10.24864304 -1.56786499 10.93687653 -2.27270508 11.64596558 C-3.02801514 12.39048981 -3.7833252 13.13501404 -4.56152344 13.90209961 C-5.35343079 14.69444504 -6.14533813 15.48679047 -6.96124268 16.30314636 C-9.58690664 18.9267167 -12.22304924 21.53949079 -14.859375 24.15234375 C-16.68508139 25.97245366 -18.5101256 27.79322801 -20.33453369 29.61463928 C-24.65441899 33.92423049 -28.98091575 38.22707934 -33.31068254 42.52673966 C-38.21907509 47.40172585 -43.11907081 52.28511388 -48.0183177 57.16928852 C-56.4007197 65.52562186 -64.78936565 73.87564843 -73.18518066 82.21850586 C-79.5563115 88.54991516 -85.89648325 94.91062407 -92.21508789 101.29443359 C-100.48587591 109.64686632 -108.76925409 117.98670307 -117.06012821 126.31918907 C-122.07497702 131.35989183 -127.084981 136.40524576 -132.08422852 141.46142578 C-136.92212596 146.35438773 -141.77289472 151.23427634 -146.63189507 156.10628128 C-148.48350955 157.96715633 -150.33070716 159.83243677 -152.17344856 161.70209885 C-154.74232048 164.30703932 -157.32618435 166.89613891 -159.91430664 169.48193359 C-160.67753235 170.26313568 -161.44075806 171.04433777 -162.22711182 171.84921265 C-162.93217361 172.54740112 -163.63723541 173.2455896 -164.36366272 173.9649353 C-164.97292634 174.57880789 -165.58218996 175.19268047 -166.20991611 175.82515526 C-168 177 -168 177 -170.16477108 176.87719154 C-170.77039662 176.58771833 -171.37602217 176.29824512 -172 176 C-172.33 175.01 -172.66 174.02 -173 173 C-162.75 162.75 -162.75 162.75 -152.5 152.5 C-151.90316406 151.901875 -151.30632812 151.30375 -150.69140625 150.6875 C-149.28283609 149.28218289 -147.86170573 147.889469 -146.4375 146.5 C-143.90339733 143.90092033 -141.6121811 141.17707899 -139.33203125 138.35546875 C-138.89246094 137.90816406 -138.45289063 137.46085938 -138 137 C-137.34 137 -136.68 137 -136 137 C-135.67 136.01 -135.34 135.02 -135 134 C-134.34 134 -133.68 134 -133 134 C-132.7525 133.4225 -132.505 132.845 -132.25 132.25 C-130.81700012 129.67060021 -129.21575324 127.93878408 -127 126 C-126.34 126 -125.68 126 -125 126 C-124.505 124.515 -124.505 124.515 -124 123 C-123.34 123 -122.68 123 -122 123 C-122 122.34 -122 121.68 -122 121 C-121.34 121 -120.68 121 -120 121 C-119.505 119.515 -119.505 119.515 -119 118 C-118.34 118 -117.68 118 -117 118 C-117 117.34 -117 116.68 -117 116 C-115.625 114.375 -115.625 114.375 -114 113 C-113.34 113 -112.68 113 -112 113 C-111.7525 112.4225 -111.505 111.845 -111.25 111.25 C-109.81700012 108.67060021 -108.21575324 106.93878408 -106 105 C-105.34 105 -104.68 105 -104 105 C-103.505 103.515 -103.505 103.515 -103 102 C-102.34 102 -101.68 102 -101 102 C-100.505 100.515 -100.505 100.515 -100 99 C-99.34 99 -98.68 99 -98 99 C-98 98.34 -98 97.68 -98 97 C-97.34 97 -96.68 97 -96 97 C-95.79375 96.443125 -95.5875 95.88625 -95.375 95.3125 C-93.42316968 92.02987629 -91.05769006 90.29326754 -88 88 C-87.34 88 -86.68 88 -86 88 C-85.68832886 87.19937134 -85.68832886 87.19937134 -85.37036133 86.38256836 C-83.45178921 83.04685745 -80.79846343 80.55334222 -78.07421875 77.87890625 C-77.4896138 77.2971312 -76.90500885 76.71535614 -76.3026886 76.11595154 C-74.43561298 74.26004158 -72.56171566 72.41119648 -70.6875 70.5625 C-69.4376908 69.32272942 -68.18833682 68.08249975 -66.93945312 66.84179688 C-64.6339166 64.55255606 -62.32574236 62.26604865 -60.0144043 59.98266602 C-57.3324406 57.33221368 -54.66497421 54.66754107 -52 52 C-51.06800781 51.07960937 -50.13601562 50.15921875 -49.17578125 49.2109375 C-48.2213417 48.26563759 -47.26691468 47.32032502 -46.3125 46.375 C-45.82716797 45.89804688 -45.34183594 45.42109375 -44.84179688 44.9296875 C-42.60414685 42.70746954 -40.7575391 40.63630864 -39 38 C-38.34 38 -37.68 38 -37 38 C-37 37.34 -37 36.68 -37 36 C-35.4609375 34.51953125 -35.4609375 34.51953125 -33.375 32.8125 C-30.6203886 30.47980971 -28.16826882 28.16229748 -25.875 25.375 C-23.19001717 22.11518345 -20.28327515 19.65456289 -17 17 C-15.32048594 15.34628053 -13.65589501 13.67736915 -12 12 C-10.96298638 10.96149332 -9.92519775 9.92376008 -8.88671875 8.88671875 C-8.0987793 8.0987793 -8.0987793 8.0987793 -7.29492188 7.29492188 C-3.64746094 3.64746094 -3.64746094 3.64746094 0 0 Z " fill="#CECECE" transform="translate(264,74)"/>
<path d="M0 0 C3.31515395 3.18075582 3.80937497 5.65058488 3.9453125 10.07421875 C3.87057977 15.67237962 2.61223079 18.71357916 -0.94921875 22.9609375 C-4.73492963 26.32294351 -9.82107178 25.77478978 -14.6015625 25.734375 C-20.06640055 25.09102766 -22.00056614 22.25166438 -25.4296875 18.13671875 C-27.29967963 13.56562688 -27.55376084 8.97745304 -25.7578125 4.3203125 C-24.03994173 1.15546596 -22.5689031 -0.60380419 -19.5546875 -2.61328125 C-11.87580002 -4.39906904 -6.2925082 -4.87303542 0 0 Z " fill="#CDCDCD" transform="translate(137.5546875,118.61328125)"/>
<path d="M0 0 C1.51400391 0.01740234 1.51400391 0.01740234 3.05859375 0.03515625 C4.07050781 0.04417969 5.08242187 0.05320312 6.125 0.0625 C7.29869141 0.07990234 7.29869141 0.07990234 8.49609375 0.09765625 C8.49609375 0.75765625 8.49609375 1.41765625 8.49609375 2.09765625 C7.83609375 2.09765625 7.17609375 2.09765625 6.49609375 2.09765625 C6.55796875 3.27328125 6.55796875 3.27328125 6.62109375 4.47265625 C6.49609375 7.09765625 6.49609375 7.09765625 4.49609375 9.09765625 C1.87109375 9.22265625 1.87109375 9.22265625 -0.50390625 9.09765625 C-0.50390625 9.75765625 -0.50390625 10.41765625 -0.50390625 11.09765625 C1.19765625 11.06671875 1.19765625 11.06671875 2.93359375 11.03515625 C6.49609375 11.09765625 6.49609375 11.09765625 7.49609375 12.09765625 C7.74609375 14.53515625 7.74609375 14.53515625 7.49609375 17.09765625 C3.31652925 19.88403258 1.34940698 18.89328137 -3.50390625 18.09765625 C-4.57013024 14.06969895 -4.25089566 11.16459859 -3.50390625 7.09765625 C-3.50390625 6.00453125 -3.50390625 4.91140625 -3.50390625 3.78515625 C-3.50390625 0.27182459 -3.48982318 0.13610855 0 0 Z " fill="#D5D5D5" transform="translate(212.50390625,267.90234375)"/>
<path d="M0 0 C0.99 0.66 1.98 1.32 3 2 C3.3984375 4.3125 3.3984375 4.3125 3.375 7 C3.38273438 7.886875 3.39046875 8.77375 3.3984375 9.6875 C3.26695312 10.450625 3.13546875 11.21375 3 12 C-0.46923881 14.31282587 -1.92205575 14.42478586 -6 14 C-8.17563838 12.38614618 -8.90979584 11.49612289 -9.3984375 8.80859375 C-9.39070312 8.02613281 -9.38296875 7.24367188 -9.375 6.4375 C-9.38273438 5.65246094 -9.39046875 4.86742187 -9.3984375 4.05859375 C-9.26695312 3.37925781 -9.13546875 2.69992187 -9 2 C-5.53001271 -0.31332486 -4.07490752 -0.33957563 0 0 Z " fill="#D2D2D2" transform="translate(154,268)"/>
<path d="M0 0 C0.66 0 1.32 0 2 0 C2 0.66 2 1.32 2 2 C2.99 2.33 3.98 2.66 5 3 C6.53515625 5.03125 6.53515625 5.03125 8.0625 7.5 C9.98393567 10.84055125 9.98393567 10.84055125 13 13 C13 8.71 13 4.42 13 0 C13.99 0.33 14.98 0.66 16 1 C16 7.27 16 13.54 16 20 C15.01 20 14.02 20 13 20 C10 16.66666667 10 16.66666667 10 14 C9.34 14 8.68 14 8 14 C6.12422691 11.45349592 4.61674188 8.72293369 3 6 C2.67 10.62 2.34 15.24 2 20 C1.34 20 0.68 20 0 20 C0 13.4 0 6.8 0 0 Z " fill="#D7D7D7" transform="translate(126,262)"/>
<path d="M0 0 C3.66666667 0 7.33333333 0 11 0 C12.2684375 -0.061875 12.2684375 -0.061875 13.5625 -0.125 C16 0 16 0 18 2 C18.1953125 4.8203125 18.1953125 4.8203125 18.125 8.125 C18.10695312 9.22070312 18.08890625 10.31640625 18.0703125 11.4453125 C18.04710937 12.28835938 18.02390625 13.13140625 18 14 C17.34 14 16.68 14 16 14 C15.67 10.04 15.34 6.08 15 2 C13.35 2.33 11.7 2.66 10 3 C10 6.63 10 10.26 10 14 C9.34 14 8.68 14 8 14 C7.67 10.04 7.34 6.08 7 2 C5.35 2.33 3.7 2.66 2 3 C2 6.63 2 10.26 2 14 C1.34 14 0.68 14 0 14 C0 9.38 0 4.76 0 0 Z " fill="#D0D0D0" transform="translate(174,268)"/>
<path d="M0 0 C0.99 0.66 1.98 1.32 3 2 C3 3.65 3 5.3 3 7 C-0.3 7 -3.6 7 -7 7 C-6.34 8.32 -5.68 9.64 -5 11 C-2.36 11 0.28 11 3 11 C3 11.66 3 12.32 3 13 C0.19084526 14.40457737 -1.88810534 14.24895157 -5 14 C-7.375 13 -7.375 13 -9 11 C-9.66666519 7.40450234 -9.68693028 4.22120939 -7.875 1 C-5.13335219 -0.46221217 -3.05603838 -0.31833733 0 0 Z " fill="#D3D3D3" transform="translate(231,268)"/>
<path d="M0 0 C5.625 -0.25 5.625 -0.25 9 2 C9.29296875 4.8203125 9.29296875 4.8203125 9.1875 8.125 C9.16042969 9.22070312 9.13335937 10.31640625 9.10546875 11.4453125 C9.07066406 12.28835938 9.03585938 13.13140625 9 14 C5.37 14 1.74 14 -2 14 C-2 12.35 -2 10.7 -2 9 C-1.34 9 -0.68 9 0 9 C0 9.99 0 10.98 0 12 C1.65 11.67 3.3 11.34 5 11 C5 8.36 5 5.72 5 3 C3.02 3 1.04 3 -1 3 C-0.67 2.01 -0.34 1.02 0 0 Z " fill="#D9D9D9" transform="translate(197,268)"/>
<path d="M0 0 C4.55555556 0.55555556 4.55555556 0.55555556 6 2 C6.29386153 5.72224599 6.14809171 6.77786243 4 10 C-0.875 9.125 -0.875 9.125 -2 8 C-2.1875 5.0625 -2.1875 5.0625 -2 2 C-1.34 1.34 -0.68 0.68 0 0 Z " fill="#FAFAFA" transform="translate(149,270)"/>
<path d="M0 0 C3.63 0 7.26 0 11 0 C11 0.66 11 1.32 11 2 C10.34 2 9.68 2 9 2 C9.061875 3.175625 9.061875 3.175625 9.125 4.375 C9 7 9 7 7 9 C4.375 9.125 4.375 9.125 2 9 C2.33 8.34 2.66 7.68 3 7 C2.34 6.67 1.68 6.34 1 6 C0.375 2.9375 0.375 2.9375 0 0 Z " fill="#D9D9D9" transform="translate(210,268)"/>
<path d="M0 0 C0.66 0 1.32 0 2 0 C2 0.66 2 1.32 2 2 C2.99 2.33 3.98 2.66 5 3 C9 8.37142857 9 8.37142857 9 11 C5.83884224 9.63016497 5.0072908 9.0109362 3 6 C2.67 10.62 2.34 15.24 2 20 C1.34 20 0.68 20 0 20 C0 13.4 0 6.8 0 0 Z " fill="#CFCFCF" transform="translate(126,262)"/>
<path d="M0 0 C0.042721 1.66611905 0.04063832 3.33382885 0 5 C-1 6 -1 6 -3.5625 6.0625 C-4.7690625 6.0315625 -4.7690625 6.0315625 -6 6 C-6 5.01 -6 4.02 -6 3 C-6.66 2.67 -7.32 2.34 -8 2 C-4.77208445 -0.1519437 -3.71599191 -0.20086443 0 0 Z " fill="#DBDBDB" transform="translate(203,274)"/>
<path d="M0 0 C0.33 0 0.66 0 1 0 C1 1.98 1 3.96 1 6 C1.66 6 2.32 6 3 6 C3.33 6.66 3.66 7.32 4 8 C6.64 8 9.28 8 12 8 C12 8.66 12 9.32 12 10 C9.19084526 11.40457737 7.11189466 11.24895157 4 11 C1.625 10 1.625 10 0 8 C-0.33686831 5.24528656 -0.18319242 2.7936844 0 0 Z " fill="#D8D8D8" transform="translate(222,271)"/>
<path d="M0 0 C5.75 -0.125 5.75 -0.125 8 1 C7.67 4.3 7.34 7.6 7 11 C6.67 11 6.34 11 6 11 C5.67 8.36 5.34 5.72 5 3 C3.02 3 1.04 3 -1 3 C-0.67 2.01 -0.34 1.02 0 0 Z " fill="#D2D2D2" transform="translate(197,268)"/>
<path d="M0 0 C0.99 0.33 1.98 0.66 3 1 C2.67 2.32 2.34 3.64 2 5 C3.65 5.33 5.3 5.66 7 6 C6.360625 6.103125 5.72125 6.20625 5.0625 6.3125 C4.381875 6.539375 3.70125 6.76625 3 7 C2.67 7.99 2.34 8.98 2 10 C-0.09350689 6.5980513 -0.17942163 3.94727588 0 0 Z " fill="#D3D3D3" transform="translate(209,269)"/>
<path d="M0 0 C1.65 0 3.3 0 5 0 C5.33 1.32 5.66 2.64 6 4 C2.25 5.125 2.25 5.125 0 4 C0 2.68 0 1.36 0 0 Z " fill="#FAFAFA" transform="translate(211,270)"/>
<path d="M0 0 C2.31 0 4.62 0 7 0 C6.34 1.32 5.68 2.64 5 4 C3.35 3.67 1.7 3.34 0 3 C0 2.01 0 1.02 0 0 Z " fill="#F9F9F9" transform="translate(211,281)"/>
<path d="M0 0 C2.625 -0.1875 2.625 -0.1875 5 0 C5.33 0.99 5.66 1.98 6 3 C3.36 3 0.72 3 -2 3 C-1.34 2.01 -0.68 1.02 0 0 Z " fill="#F8F8F8" transform="translate(226,270)"/>
<path d="M0 0 C1.32 0 2.64 0 4 0 C3.67 1.32 3.34 2.64 3 4 C1.68 4 0.36 4 -1 4 C-0.67 2.68 -0.34 1.36 0 0 Z " fill="#FBFBFB" transform="translate(199,276)"/>
</svg>
