<svg version="1.1" id="Layer_1" xmlns="http://www.w3.org/2000/svg" xmlns:xlink="http://www.w3.org/1999/xlink" x="0px" y="0px"
	 width="100%" viewBox="0 0 1024 1024" enable-background="new 0 0 1024 1024" xml:space="preserve">
<path fill="#000000" opacity="1.000000" stroke="none" 
	d="
M818.342285,524.000122 
	C818.342590,539.663879 818.366272,554.827759 818.335327,569.991455 
	C818.308167,583.296143 813.225098,588.358154 799.944275,588.358521 
	C608.314026,588.363342 416.683746,588.366394 225.053497,588.360413 
	C213.796036,588.360046 208.210434,582.985962 207.678650,571.710693 
	C207.584534,569.715332 207.649246,567.712097 207.649826,565.712524 
	C207.677032,471.230774 207.719376,376.749023 207.727615,282.267273 
	C207.732025,231.610413 207.677811,180.953552 207.650925,130.296692 
	C207.650116,128.796997 207.606461,127.294983 207.672150,125.797966 
	C208.083176,116.432083 213.995056,110.653046 223.321228,110.652542 
	C416.117950,110.642181 608.914673,110.642868 801.711426,110.663597 
	C812.469971,110.664757 818.253479,116.818214 818.252258,128.081528 
	C818.239746,245.557831 818.212646,363.034119 818.205078,480.510437 
	C818.204102,494.840302 818.294006,509.170197 818.342285,524.000122 
M476.487396,433.987701 
	C574.305786,336.439728 672.124207,238.891754 770.079895,141.206833 
	C768.016541,139.985916 766.318604,140.400269 764.703186,140.400009 
	C590.888916,140.371750 417.074615,140.379150 243.260391,140.282867 
	C238.841431,140.280426 237.206558,141.310577 237.211395,146.108658 
	C237.340485,274.261139 237.312347,402.413788 237.356171,530.566406 
	C237.356735,532.238892 236.621033,534.182922 239.517212,536.751648 
	C241.108078,534.609924 242.522156,532.313110 244.310989,530.359497 
	C259.595917,513.666809 274.847504,496.941650 290.304504,480.408936 
	C315.320862,453.651581 340.550934,427.093872 365.551056,400.321442 
	C373.966492,391.309479 380.490509,390.846100 389.180481,399.444366 
	C407.774658,417.842316 426.335510,436.273987 444.937744,454.663757 
	C446.562683,456.270111 447.938019,458.257172 450.750244,459.061646 
	C459.086792,450.945160 467.537720,442.717255 476.487396,433.987701 
M647.738342,348.805511 
	C694.129211,408.608429 740.802490,468.188782 788.407166,527.741882 
	C788.407166,406.294434 788.407166,285.452545 788.407166,163.927216 
	C787.081726,165.146118 786.221863,165.869522 785.438049,166.667664 
	C769.217957,183.183411 753.070740,199.771301 736.775513,216.212479 
	C719.883728,233.255554 702.751892,250.061157 685.905273,267.148376 
	C667.893433,285.417603 649.176697,302.987885 631.752991,321.844238 
	C629.534729,324.244965 629.709229,325.897888 631.560730,328.201019 
	C636.880920,334.818817 642.076355,341.536865 647.738342,348.805511 
z"/>
<path fill="#000000" opacity="1.000000" stroke="none" 
	d="
M269.648682,690.997375 
	C269.649994,676.337097 269.775177,662.174316 269.575684,648.016235 
	C269.517731,643.904236 270.831818,642.582947 274.974548,642.563782 
	C290.318695,642.492676 290.321106,642.358643 290.321106,657.477051 
	C290.321136,683.633240 290.199585,709.790344 290.418518,735.944702 
	C290.459961,740.895691 289.040863,742.019592 284.052155,742.607239 
	C271.910370,744.037598 264.409760,740.067261 258.275360,728.953186 
	C249.210175,712.529358 238.002762,697.287720 227.696548,681.549927 
	C226.824615,680.218445 225.869614,678.941345 224.141525,676.485596 
	C224.141525,685.624329 224.143539,693.391479 224.141068,701.158630 
	C224.137283,712.987183 224.008423,724.817627 224.192108,736.643250 
	C224.254944,740.688171 222.969666,742.335571 218.773834,742.246338 
	C200.845917,741.865051 204.145798,744.540588 204.026047,728.116272 
	C203.835358,701.961487 203.949829,675.804382 203.967194,649.648254 
	C203.971832,642.671753 204.133759,643.430664 210.757965,642.482910 
	C222.684937,640.776428 229.668640,645.286255 235.586578,655.833984 
	C244.849350,672.343323 255.988907,687.800049 266.345306,703.694885 
	C267.150818,704.931152 268.049255,706.106873 269.648895,708.358582 
	C269.648895,701.964844 269.648895,696.730774 269.648682,690.997375 
z"/>
<path fill="#000000" opacity="1.000000" stroke="none" 
	d="
M492.334961,725.997620 
	C492.324402,730.493835 492.237091,734.492554 492.329559,738.487122 
	C492.392487,741.205139 491.330719,742.565125 488.528320,742.343689 
	C488.197693,742.317566 487.862457,742.343567 487.529572,742.353027 
	C472.652618,742.774719 472.651154,742.774902 472.651978,728.017212 
	C472.653046,709.864075 472.776367,691.709656 472.574371,673.558838 
	C472.524689,669.091431 473.739716,667.172119 478.445282,667.578735 
	C482.542847,667.932800 486.695251,667.652466 491.008209,667.652466 
	C491.262512,669.957642 491.457672,671.726807 491.697205,673.898254 
	C507.191101,663.011536 521.932983,660.494385 535.157532,677.290833 
	C537.471375,675.132568 539.600769,673.301819 541.552673,671.298218 
	C549.406860,663.236084 570.881714,663.268433 577.979675,672.714905 
	C582.073303,678.163025 584.173523,684.140137 584.261475,690.722961 
	C584.468201,706.208679 584.253296,721.699585 584.391724,737.186768 
	C584.423706,740.759583 583.421936,742.292542 579.596252,742.204834 
	C562.551086,741.813721 565.351196,744.463440 565.139160,728.144897 
	C565.033264,719.992981 565.415771,711.835266 565.535645,703.679565 
	C565.584473,700.359375 565.503235,697.078491 564.787598,693.768494 
	C563.037964,685.676697 559.429443,682.102478 552.796143,682.424255 
	C545.535950,682.776428 540.270874,687.990051 539.327332,695.311890 
	C537.616760,708.584900 538.607117,721.906494 538.366150,735.204590 
	C538.239868,742.171509 538.326904,742.173096 531.633484,742.203491 
	C518.710938,742.262207 518.709412,742.262207 518.711487,729.266235 
	C518.713257,718.774048 518.725525,708.281860 518.721680,697.789673 
	C518.717834,687.237427 515.208191,682.548645 507.229095,682.406433 
	C499.218262,682.263672 492.946411,688.484131 492.607056,697.531433 
	C492.257690,706.843994 492.404846,716.175293 492.334961,725.997620 
z"/>
<path fill="#000000" opacity="1.000000" stroke="none" 
	d="
M731.270996,741.008057 
	C731.586609,738.235107 731.969360,735.797241 731.278076,733.255554 
	C728.437378,733.931152 726.974487,736.161072 724.842712,737.382751 
	C709.650146,746.089539 685.794067,741.913025 680.328674,718.737122 
	C677.285217,705.831360 676.890930,692.747803 683.218384,680.298096 
	C691.467163,664.068054 712.416504,661.895508 724.582153,669.646240 
	C726.257751,670.713745 727.939941,671.770935 730.085632,673.127930 
	C731.147888,665.123657 737.104492,667.803772 741.534546,667.726929 
	C751.447144,667.554871 750.294434,666.737732 750.319885,676.501831 
	C750.373657,697.149353 749.928223,717.807434 750.447998,738.442078 
	C751.044800,762.135986 736.523560,768.256531 720.494507,770.145020 
	C713.288269,770.994019 705.894531,770.793396 698.622925,769.347473 
	C689.340759,767.501770 682.367493,761.153625 680.398621,752.968628 
	C679.704651,750.083496 680.404236,749.026794 683.115356,748.464844 
	C685.382080,747.994995 687.572205,747.142578 689.783081,746.419312 
	C693.943115,745.058472 697.825684,743.519531 700.010254,749.629700 
	C701.018494,752.449585 704.413696,753.554688 707.448242,754.093140 
	C718.202942,756.001465 729.133789,753.116089 731.270996,741.008057 
M699.158752,694.736694 
	C697.513977,699.958374 697.789124,705.347595 698.572937,710.570496 
	C699.873413,719.235474 706.746948,725.264709 714.781311,725.558105 
	C722.307739,725.832947 728.417969,720.343079 730.641846,711.602600 
	C731.944824,706.481873 731.741394,701.482727 730.735779,696.339111 
	C729.099304,687.969116 723.649658,681.859314 716.903198,681.361877 
	C707.391541,680.660583 702.542969,684.126648 699.158752,694.736694 
z"/>
<path fill="#000000" opacity="1.000000" stroke="none" 
	d="
M263.317627,794.980103 
	C268.233368,802.396362 270.176941,810.716919 273.125488,818.595581 
	C281.740295,841.614929 289.903229,864.803284 298.250000,887.923035 
	C299.026947,890.075073 300.095367,892.158325 299.842651,895.242249 
	C293.066681,895.242249 286.463257,895.297119 279.861481,895.215149 
	C277.238525,895.182617 276.906830,892.863525 276.307770,891.013855 
	C274.670807,885.959778 273.092926,880.885986 271.546600,875.803345 
	C270.771454,873.255371 269.301971,872.053162 266.477875,872.085754 
	C256.658417,872.199219 246.835602,872.198364 237.016510,872.062744 
	C233.954926,872.020508 232.509262,873.386292 231.703186,876.142212 
	C230.212234,881.239746 228.417267,886.251038 227.018845,891.371948 
	C226.239929,894.224182 224.872635,895.489929 221.804214,895.388916 
	C216.024261,895.198547 210.233582,895.333923 204.750061,895.333923 
	C203.325394,892.610291 204.539780,890.774170 205.168182,888.995911 
	C215.738007,859.083801 226.398727,829.203796 236.962601,799.289551 
	C238.097626,796.075378 239.716431,794.374634 243.441101,794.564270 
	C249.916519,794.893921 256.415161,794.767395 263.317627,794.980103 
M255.352249,852.768188 
	C257.807220,852.599365 260.331299,853.212280 263.262268,851.967102 
	C259.572693,840.812805 256.330872,829.545410 251.427551,817.584473 
	C247.265121,829.864075 243.514862,840.927795 239.501648,852.767212 
	C245.122223,852.767212 249.759598,852.767212 255.352249,852.768188 
z"/>
<path fill="#000000" opacity="1.000000" stroke="none" 
	d="
M689.898926,887.856689 
	C675.359619,900.315735 660.258118,900.001221 646.281128,887.171753 
	C645.080872,888.140991 646.070312,889.314819 646.097168,890.306091 
	C646.191040,893.777771 645.027405,895.625671 641.187805,895.369812 
	C637.707214,895.137939 634.196350,895.211182 630.705261,895.333496 
	C627.667786,895.439880 626.643982,894.075928 626.648499,891.144409 
	C626.697876,859.184387 626.699463,827.224060 626.629028,795.264038 
	C626.622070,792.102539 627.686707,790.740784 630.959839,790.810242 
	C648.462769,791.181763 645.732666,788.046936 646.041504,805.239563 
	C646.161072,811.894653 646.103027,818.552856 646.161438,825.209351 
	C646.165344,825.658081 646.469910,826.104248 646.610535,826.486084 
	C647.726562,826.972961 648.257690,826.183716 648.822083,825.643372 
	C661.975525,813.050964 691.280579,816.095459 697.442078,839.717468 
	C700.555298,851.653137 700.508850,863.712708 697.108032,875.621704 
	C695.817993,880.139282 693.317871,884.098816 689.898926,887.856689 
M672.239075,837.144653 
	C662.833069,831.786560 653.327942,834.261047 649.121277,843.408325 
	C645.124512,852.098877 644.809937,861.071838 648.481812,869.938293 
	C651.027344,876.084961 655.917542,879.889526 662.510071,880.474365 
	C668.142944,880.974060 673.249573,878.553284 676.092224,873.655823 
	C681.838013,863.756897 682.307922,846.032104 672.239075,837.144653 
z"/>
<path fill="#000000" opacity="1.000000" stroke="none" 
	d="
M568.405151,848.998169 
	C574.607910,848.232178 580.369202,847.506531 586.139709,846.863220 
	C590.099915,846.421692 590.098816,844.031006 589.058167,841.128601 
	C588.358398,839.176941 586.953613,837.716797 585.289978,836.578552 
	C576.729431,830.721558 565.028015,834.566833 561.681641,844.684265 
	C556.310791,844.391357 551.179016,842.500977 545.941162,841.209412 
	C543.394104,840.581299 543.824646,838.776733 544.394836,836.844055 
	C547.155823,827.485962 553.544250,821.827454 562.795898,819.725830 
	C571.473633,817.754578 580.351196,817.803467 589.014221,820.010315 
	C601.605347,823.217834 607.556213,829.851318 608.059509,842.936829 
	C608.679993,859.071838 608.249939,875.246521 608.323914,891.403931 
	C608.336182,894.086731 607.302917,895.427002 604.500244,895.326233 
	C602.005188,895.236511 599.497986,895.224548 597.006104,895.361084 
	C592.615479,895.601746 588.605530,895.493652 589.738525,889.232849 
	C586.615173,889.221252 585.757812,891.651306 584.035339,892.779419 
	C571.641846,900.896118 544.494507,897.868286 541.193604,876.150818 
	C539.823853,867.138916 543.281860,856.347107 553.479248,852.626953 
	C558.216187,850.898926 563.102417,850.104797 568.405151,848.998169 
M571.854492,881.610901 
	C584.365173,881.594482 591.542664,873.280518 589.059204,861.248535 
	C581.212158,861.942017 573.285339,862.457092 565.886292,865.585449 
	C560.354980,867.924194 559.287781,873.247070 563.130432,877.749695 
	C565.207092,880.182983 568.169922,880.768311 571.854492,881.610901 
z"/>
<path fill="#000000" opacity="1.000000" stroke="none" 
	d="
M450.349426,864.000122 
	C450.345551,873.164124 450.216766,881.830750 450.396057,890.490967 
	C450.472473,894.180908 449.129974,895.692688 445.456909,895.366882 
	C443.473480,895.191040 441.460968,895.348083 439.461578,895.346375 
	C432.174469,895.340271 432.174469,895.338928 431.607605,887.473145 
	C427.674896,891.879456 423.206604,894.640320 417.837280,896.106323 
	C403.022369,900.151184 387.046417,891.949646 383.519104,878.286072 
	C380.060638,864.889221 387.316681,853.538818 401.566833,850.788391 
	C409.219391,849.311462 417.045441,848.754089 424.755920,847.544067 
	C427.068817,847.181091 430.577057,847.765991 431.278168,845.097229 
	C432.092224,841.998474 430.392426,838.975342 427.701416,836.865417 
	C419.714142,830.602966 406.483337,834.534241 403.613495,844.475098 
	C398.036499,844.491272 392.759247,842.417358 387.389221,841.035400 
	C385.223053,840.477905 385.741180,838.543457 386.264771,836.858521 
	C389.213531,827.369263 395.840240,821.715088 405.282684,819.691956 
	C414.826569,817.646973 424.490875,817.831604 433.888123,820.809753 
	C444.159882,824.065063 449.209656,831.624939 449.946259,842.022095 
	C450.451569,849.155151 450.240234,856.338928 450.349426,864.000122 
M432.079926,863.519714 
	C432.231873,860.704102 430.074097,861.242981 428.613037,861.394775 
	C421.872803,862.094849 415.175598,863.152466 408.709290,865.239258 
	C405.372009,866.316284 402.736145,868.218994 402.944916,872.314514 
	C403.154846,876.432556 405.270721,879.182556 409.115692,880.457458 
	C419.946625,884.048523 431.880798,878.483643 432.079926,863.519714 
z"/>
<path fill="#000000" opacity="1.000000" stroke="none" 
	d="
M647.743286,739.577881 
	C647.588135,738.541687 647.567017,737.856567 647.346558,737.243042 
	C647.193542,736.817078 646.766357,736.489624 646.081482,735.654724 
	C639.414978,742.056946 631.318665,743.915405 622.328125,743.384705 
	C605.180847,742.372437 594.536499,727.360901 599.687012,711.134094 
	C601.541199,705.292175 605.713196,701.836792 611.178833,699.495728 
	C619.292725,696.020447 627.973999,695.670105 636.530212,694.787659 
	C640.003235,694.429443 643.344299,693.709900 646.693787,693.217712 
	C647.252075,686.149109 644.192383,682.238708 637.639465,681.369385 
	C627.859436,680.071960 624.723267,681.471130 620.267883,689.594971 
	C619.148804,691.635376 617.687805,691.333435 616.069092,691.009460 
	C613.142334,690.423706 610.230652,689.760071 607.320740,689.093750 
	C601.285889,687.711853 600.686218,686.787354 603.278931,680.937683 
	C606.989441,672.565674 613.612061,667.252502 622.598694,666.176697 
	C631.792297,665.076111 641.163208,664.554016 650.216919,667.800049 
	C659.402405,671.093140 665.190125,678.707153 665.285889,688.537231 
	C665.444824,704.849365 665.265869,721.164673 665.377747,737.477600 
	C665.401123,740.896118 664.198181,742.380798 660.744995,742.200745 
	C657.756348,742.044983 654.752930,742.194580 651.758301,742.119812 
	C650.113220,742.078796 648.310608,742.148438 647.743286,739.577881 
M643.328735,722.779846 
	C646.624329,719.642761 646.717224,715.314209 647.488464,711.281494 
	C647.962036,708.805115 646.375305,708.052368 644.169312,708.244873 
	C637.385010,708.836853 630.633545,709.666321 624.197876,712.028687 
	C620.905396,713.237366 618.244263,715.185730 618.402466,719.220154 
	C618.566162,723.392883 620.797974,726.332886 624.758240,727.135437 
	C631.213806,728.443787 637.727966,728.920837 643.328735,722.779846 
z"/>
<path fill="#000000" opacity="1.000000" stroke="none" 
	d="
M749.725281,852.372681 
	C750.871094,847.075317 751.551025,842.145569 753.636902,837.537598 
	C759.142822,825.374207 768.700012,819.381165 781.813416,818.655945 
	C792.073120,818.088562 801.852478,819.376221 809.694031,826.861938 
	C819.769592,836.480225 821.325867,848.661011 820.067444,861.891846 
	C815.230591,862.819153 810.580444,862.304260 805.970398,862.344299 
	C795.474304,862.435364 784.975952,862.450195 774.480469,862.326904 
	C770.690186,862.282471 769.916687,863.703552 770.840881,867.222961 
	C774.009216,879.287842 785.344299,885.175476 794.693176,879.432800 
	C795.259766,879.084778 796.012024,878.799988 796.302856,878.277100 
	C802.502625,867.132507 810.987732,874.445312 819.302490,874.980347 
	C815.011963,886.417847 807.490906,893.014282 796.301392,895.825439 
	C779.966919,899.929077 762.751709,893.679260 755.444702,880.344788 
	C750.780823,871.833923 749.345337,862.475952 749.725281,852.372681 
M775.866455,848.655151 
	C782.844666,848.653809 789.823181,848.609497 796.800842,848.671326 
	C799.767029,848.697571 801.219666,847.925476 800.151794,844.554260 
	C797.865601,837.336426 790.874573,833.227722 782.412292,834.354858 
	C776.571228,835.132935 771.459229,841.344727 771.106018,848.342041 
	C772.392029,848.442932 773.688599,848.544617 775.866455,848.655151 
z"/>
<path fill="#000000" opacity="1.000000" stroke="none" 
	d="
M801.003174,709.348511 
	C796.005493,709.353577 791.507080,709.347778 787.008728,709.368408 
	C784.985901,709.377686 783.409424,709.623657 783.850952,712.460571 
	C785.381836,722.295288 792.895508,728.385498 802.754028,727.699463 
	C807.314514,727.382202 810.712036,724.997070 812.982117,721.392639 
	C814.651428,718.742004 816.522217,718.245605 819.213684,718.875305 
	C821.641907,719.443359 824.076599,719.994568 826.526733,720.455994 
	C832.948853,721.665222 833.175049,722.124146 829.972534,727.916199 
	C823.927063,738.850098 807.805664,745.138000 793.895325,743.038208 
	C769.625244,739.374817 762.203125,718.728577 763.953735,699.188965 
	C764.826294,689.448914 767.382751,680.094727 775.404907,673.446777 
	C787.144836,663.717957 800.626526,663.359497 814.016724,668.226440 
	C825.928650,672.555847 832.315308,682.099915 833.360474,694.935425 
	C833.641174,698.382324 834.899414,701.723633 834.050232,705.294739 
	C833.382629,708.102356 832.160828,709.474487 828.991394,709.409424 
	C819.831848,709.221252 810.665894,709.346375 801.003174,709.348511 
M811.647644,695.621826 
	C814.297913,695.546021 814.408203,694.168335 813.918762,691.928650 
	C812.469055,685.295105 805.512085,680.300415 798.206421,680.893066 
	C790.800781,681.493774 785.078674,687.597473 785.000366,695.648743 
	C793.598267,695.648743 802.205627,695.648743 811.647644,695.621826 
z"/>
<path fill="#000000" opacity="1.000000" stroke="none" 
	d="
M371.516907,679.658752 
	C378.802216,692.537109 379.955963,705.840759 375.714020,719.420776 
	C372.237305,730.550964 365.008911,738.458008 353.364441,741.638184 
	C340.837341,745.059387 328.985077,744.011475 318.277527,736.088745 
	C312.120453,731.532898 308.337494,725.299011 306.891327,717.867737 
	C304.391113,705.019897 304.401093,692.329529 311.257202,680.570679 
	C316.933746,670.834839 325.848999,666.353821 336.825134,665.674133 
	C347.742950,664.998047 358.096008,666.435730 366.694641,674.145813 
	C368.453766,675.723145 369.951202,677.460144 371.516907,679.658752 
M350.031799,683.281250 
	C339.492096,678.519653 330.569061,681.835388 326.739075,692.553650 
	C323.764160,700.879089 323.707947,709.569824 327.193237,717.799866 
	C331.919006,728.959045 346.082092,731.240356 353.280640,722.212524 
	C361.588593,711.793335 359.806061,689.557617 350.031799,683.281250 
z"/>
<path fill="#000000" opacity="1.000000" stroke="none" 
	d="
M332.136871,849.088806 
	C334.530731,856.747986 336.801392,864.025452 339.072052,871.302917 
	C339.432373,871.315857 339.792694,871.328796 340.153015,871.341736 
	C343.343140,861.274353 346.559601,851.215149 349.712891,841.136230 
	C351.450104,835.583496 353.165680,830.020996 354.725464,824.416809 
	C355.548157,821.461182 357.049530,819.850220 360.313690,819.987976 
	C365.559662,820.209290 370.863739,819.497925 376.258392,820.636169 
	C376.354340,824.002014 374.971130,826.547180 374.057098,829.130310 
	C366.902374,849.350220 359.530212,869.493774 352.472229,889.746887 
	C351.069458,893.772278 349.258636,895.899719 344.717773,895.405884 
	C339.454346,894.833557 333.209137,897.290833 329.085144,894.405701 
	C324.976837,891.531494 324.697083,885.021423 322.894958,880.057861 
	C316.256348,861.773682 309.765900,843.435791 303.231384,825.113892 
	C302.790253,823.876892 302.445465,822.605591 301.848236,820.681335 
	C308.494873,819.471985 314.892822,819.828430 321.260376,820.316956 
	C323.496796,820.488525 323.713776,822.820312 324.260345,824.494629 
	C326.890259,832.550598 329.437256,840.633667 332.136871,849.088806 
z"/>
<path fill="#000000" opacity="1.000000" stroke="none" 
	d="
M431.686096,673.000000 
	C431.690216,664.004822 431.780670,655.508362 431.656128,647.015137 
	C431.609222,643.816223 432.775940,642.486633 436.020874,642.621094 
	C440.011597,642.786499 444.030701,642.879333 448.007996,642.593018 
	C452.266968,642.286438 453.358337,644.101440 453.336212,648.112549 
	C453.189209,674.763428 453.242676,701.415344 453.227631,728.066956 
	C453.225861,731.231750 453.048187,734.405701 453.231842,737.559082 
	C453.450928,741.322510 451.743744,742.344910 448.180298,742.419128 
	C431.722321,742.761475 431.720520,742.848206 431.709747,726.470093 
	C431.698120,708.813416 431.694153,691.156677 431.686096,673.000000 
z"/>
<path fill="#000000" opacity="1.000000" stroke="none" 
	d="
M525.350586,804.010742 
	C525.347839,832.657227 525.230652,860.806091 525.448669,888.952332 
	C525.487183,893.927551 524.203125,895.563354 519.054810,895.458069 
	C505.701385,895.184875 505.696777,895.429932 505.693451,881.886658 
	C505.686432,853.572144 505.775696,825.256897 505.577728,796.943726 
	C505.544220,792.152405 506.965027,790.239014 511.808258,790.760925 
	C514.772217,791.080261 517.807190,790.974304 520.793579,790.789368 
	C524.327332,790.570557 525.579346,792.147949 525.373840,795.519531 
	C525.212036,798.174377 525.347107,800.847290 525.350586,804.010742 
z"/>
<path fill="#000000" opacity="1.000000" stroke="none" 
	d="
M734.331970,850.000122 
	C734.333313,863.664978 734.212341,876.831726 734.408325,889.993652 
	C734.470032,894.137634 733.024231,895.407593 728.925964,895.421204 
	C714.647461,895.468567 714.657532,895.604675 714.660645,881.388733 
	C714.666870,853.225830 714.764465,825.062195 714.561279,796.900757 
	C714.526489,792.069214 715.977722,790.225098 720.794006,790.763977 
	C723.591614,791.076965 726.468201,790.997009 729.282898,790.768738 
	C733.271606,790.445251 734.429199,792.167908 734.397095,796.007751 
	C734.247803,813.837463 734.331665,831.669128 734.331970,850.000122 
z"/>
<path fill="#000000" opacity="1.000000" stroke="none" 
	d="
M467.651794,877.998413 
	C467.651855,860.350830 467.789978,843.201172 467.560211,826.056458 
	C467.499237,821.507935 468.928833,819.958984 473.486053,819.915405 
	C487.353943,819.782959 487.350891,819.631042 487.349365,833.499634 
	C487.347351,852.145752 487.233551,870.793152 487.431366,889.437134 
	C487.478485,893.880981 486.317566,895.510193 481.586639,895.448792 
	C467.653412,895.267944 467.650818,895.470398 467.652435,881.494873 
	C467.652557,880.495972 467.652191,879.497070 467.651794,877.998413 
z"/>
<path fill="#000000" opacity="1.000000" stroke="none" 
	d="
M474.826569,813.397095 
	C467.347137,810.446899 464.614349,804.391968 467.174225,797.237305 
	C469.179565,791.632629 475.527252,788.819580 481.415680,790.926086 
	C487.166016,792.983154 489.828033,798.764709 488.215912,805.695190 
	C486.888275,811.402832 481.763153,814.462769 474.826569,813.397095 
z"/>
<path fill="#000000" opacity="1.000000" stroke="none" 
	d="
M373.626068,293.947021 
	C381.797668,270.330536 401.355530,257.972992 422.752014,257.777100 
	C449.046875,257.536316 471.136078,277.764313 474.479675,303.976624 
	C477.795746,329.973053 463.481049,350.639832 444.969208,358.730225 
	C426.657166,366.733337 408.711884,365.294952 392.482178,353.382965 
	C376.131195,341.382019 369.391357,324.757202 371.442169,304.554596 
	C371.796753,301.061768 372.448700,297.664520 373.626068,293.947021 
z"/>
</svg>